/* XPM */
static char *button_hover_png[] = {
/* columns rows colors chars-per-pixel */
"10 32 38 1 ",
"  c #9D9D99",
". c #9E9E9A",
"X c #9F9F9B",
"o c #A1A19D",
"O c #A2A29E",
"+ c #A3A39E",
"@ c #A3A3A0",
"# c #A6A6A2",
"$ c #A6A6A3",
"% c #A7A7A4",
"& c #A8A8A4",
"* c #CCCCCA",
"= c #CDCDCB",
"- c #DDDDDC",
"; c #DEDEDD",
": c #DFDFDE",
"> c #E0E0DF",
", c #E1E1E0",
"< c #E2E2E1",
"1 c #E3E3E2",
"2 c #E4E4E3",
"3 c #E5E5E4",
"4 c #E6E6E5",
"5 c #E7E7E6",
"6 c #E8E8E7",
"7 c #EAEAE9",
"8 c #EBEBEA",
"9 c #EDEDEC",
"0 c #EEEEED",
"q c #F0F0EF",
"w c #F1F1F1",
"e c #F3F3F2",
"r c #F4F4F4",
"t c #F6F6F6",
"y c gray97",
"u c #F9F9F9",
"i c #FDFDFD",
"p c None",
/* pixels */
"pppppppppp",
"ppp@..@ppp",
"pp$2ii2#pp",
"p&2uyyu1%p",
"pXttttttXp",
"p rrrrrr p",
"p eeeeee p",
"p wwwwww p",
"p qqqqqq p",
"p 000000 p",
"p 999999 p",
"p 888888 p",
"p 777777 p",
"p 666666 p",
"p 555555 p",
"p 555555 p",
"p 444444 p",
"p 333333 p",
"p 333333 p",
"p 222222 p",
"p 111111 p",
"p 111111 p",
"p <<<<<< p",
"p ,,,,,, p",
"p ,,,,,, p",
"p >>>>>> p",
"p :::::: p",
"p ;::::- p",
"po=;;;;*op",
"pp+*--*Opp",
"pppo..Oppp",
"pppppppppp"
};
