/* XPM */
static char *button_active_png[] = {
/* columns rows colors chars-per-pixel */
"10 32 39 1 ",
"  c #9D9D99",
". c #9E9E9A",
"X c #9F9F9B",
"o c #A0A09C",
"O c #A1A19D",
"+ c #A2A29D",
"@ c #A2A29E",
"# c #A5A5A0",
"$ c #A4A4A1",
"% c #BCBCB9",
"& c #BDBDB9",
"* c #C7C7C4",
"= c #C8C8C5",
"- c #C9C9C6",
"; c #CACAC7",
": c #CACAC8",
"> c #CBCBC8",
", c #CBCBC9",
"< c #CCCCC9",
"1 c #CDCDCA",
"2 c #CECECB",
"3 c #CECECC",
"4 c #CFCFCD",
"5 c #D0D0CD",
"6 c #D1D1CE",
"7 c #D2D2CF",
"8 c #D2D2D0",
"9 c #D3D3D1",
"0 c #D4D4D2",
"q c #D5D5D2",
"w c #D6D6D3",
"e c #D6D6D4",
"r c #D7D7D5",
"t c #D8D8D6",
"y c #D9D9D7",
"u c #DADAD8",
"i c #DBDBD9",
"p c #DCDCDA",
"a c None",
/* pixels */
"aaaaaaaaaa",
"aaao  oaaa",
"aa@%**&@aa",
"a#%====%$a",
"aX=----=Xa",
"a ;;;;;; a",
"a ;;;;;; a",
"a >>>>>> a",
"a <<<<<< a",
"a 111111 a",
"a 222222 a",
"a 333333 a",
"a 444444 a",
"a 555555 a",
"a 666666 a",
"a 777777 a",
"a 888888 a",
"a 999999 a",
"a 000000 a",
"a qqqqqq a",
"a wwwwww a",
"a eeeeee a",
"a rrrrrr a",
"a tttttt a",
"a yyyyyy a",
"a uuuuuu a",
"a uuuuuu a",
"a uiiiiy a",
"aO,pppp:Oa",
"aa@:ii>@aa",
"aaaO..+aaa",
"aaaaaaaaaa"
};
