/* XPM */
static char *button_png[] = {
/* columns rows colors chars-per-pixel */
"10 32 44 1 ",
"  c #9D9D99",
". c #9F9F9B",
"X c #A1A19C",
"o c #A1A19D",
"O c #A2A29F",
"+ c #A5A5A1",
"@ c #A5A5A2",
"# c #A7A7A4",
"$ c #A8A8A3",
"% c #C1C1BF",
"& c #C2C2BF",
"* c #CECECC",
"= c #CFCFCD",
"- c #D0D0CE",
"; c #D1D1CF",
": c #D2D2D0",
"> c #D3D3D1",
", c #D4D4D2",
"< c #D5D5D3",
"1 c #D6D6D4",
"2 c #D7D7D5",
"3 c #D8D8D7",
"4 c #D9D9D8",
"5 c #DADAD9",
"6 c #DBDBDA",
"7 c #DCDCDB",
"8 c #DDDDDC",
"9 c #DEDEDD",
"0 c #DFDFDE",
"q c #E0E0DF",
"w c #E1E1E0",
"e c #E2E2E1",
"r c #E3E3E2",
"t c #E4E4E3",
"y c #E5E5E4",
"u c #E6E6E5",
"i c #E7E7E6",
"p c #E8E8E7",
"a c #EBEBEA",
"s c gray92",
"d c gray93",
"f c #EEEEED",
"g c gray99",
"h c None",
/* pixels */
"hhhhhhhhhh",
"hhhO  Ohhh",
"hh@wggw+hh",
"h$rdppfe#h",
"h.aiiiis.h",
"h uuuuui h",
"h yyyyyy h",
"h tttttt h",
"h rrrrrr h",
"h eeeeee h",
"h wwwwww h",
"h qqqqqq h",
"h 000000 h",
"h 999999 h",
"h 888888 h",
"h 777777 h",
"h 666666 h",
"h 555555 h",
"h 444444 h",
"h 333333 h",
"h 222222 h",
"h 111111 h",
"h <<<<<< h",
"h ,,,,,, h",
"h >>>>>> h",
"h :::::: h",
"h ;;;;;; h",
"h =----* h",
"hX&====%Xh",
"hho%**%ohh",
"hhhX  ohhh",
"hhhhhhhhhh"
};
