/* XPM */
static char *button_insensitive_png[] = {
/* columns rows colors chars-per-pixel */
"10 32 17 1 ",
"  c #9D9D99",
". c #9E9E9A",
"X c #9F9F9B",
"o c #A2A29F",
"O c #A3A39F",
"+ c #A3A3A0",
"@ c #A4A4A0",
"# c #A5A5A1",
"$ c #A5A5A2",
"% c #A7A7A4",
"& c #A8A8A4",
"* c #DADAD9",
"= c #DBDBDA",
"- c #EEEEEE",
"; c #EFEFEF",
": c #F1F1F1",
"> c None",
/* pixels */
">>>>>>>>>>",
">>>+..o>>>",
">>$=;;=#>>",
">&=::::*%>",
">X;::::;X>",
"> :::::: >",
"> :::::: >",
"> :::::: >",
"> :::::: >",
"> :::::: >",
"> :::::: >",
"> :::::: >",
"> :::::: >",
"> :::::: >",
"> :::::: >",
"> :::::: >",
"> :::::: >",
"> :::::: >",
"> :::::: >",
"> :::::: >",
"> :::::: >",
"> :::::: >",
"> :::::: >",
"> :::::: >",
"> :::::: >",
"> :::::: >",
"> :::::: >",
">.;::::-.>",
">o=::::*O>",
">>@*;;*@>>",
">>>O..O>>>",
">>>>>>>>>>"
};
