/* XPM */
static char *checkbox_mixed_insensitive_png[] = {
/* columns rows colors chars-per-pixel */
"16 16 25 1 ",
"  c #8D9091",
". c #909394",
"X c #919495",
"o c #929596",
"O c #949697",
"+ c #959899",
"@ c #A0A0A0",
"# c gray63",
"$ c #A2A2A2",
"% c gray64",
"& c #A5A5A5",
"* c gray65",
"= c #A7A7A7",
"- c #A9A9A9",
"; c gray67",
": c #BEC0C0",
"> c #C0C2C2",
", c #C1C2C3",
"< c #E1E1E1",
"1 c #E2E2E2",
"2 c gray89",
"3 c gray95",
"4 c #F3F3F3",
"5 c #F4F4F4",
"6 c None",
/* pixels */
"66=#########&666",
"6;<455555554<-66",
"=<55555555555<=6",
"$4555555555553%6",
"$5555555555554#6",
"$5555555555554#6",
"$55,+OOOOO+>54#6",
"$55o       X54#6",
"$55:.     .:54#6",
"$5555555555554#6",
"$5555555555554#6",
"$4555555555553%6",
"=155555555555<*6",
"6;24555555541;66",
"66=@#######$*666",
"6666666666666666"
};
