/* XPM */
static char *checkbox_unchecked_png[] = {
/* columns rows colors chars-per-pixel */
"16 16 43 1 ",
"  c #A0A0A0",
". c gray63",
"X c #A2A2A2",
"o c gray64",
"O c #A4A4A4",
"+ c gray65",
"@ c #A7A7A7",
"# c #ACACAC",
"$ c gray68",
"% c gray72",
"& c gray73",
"* c gray78",
"= c #C8C8C8",
"- c #CECECE",
"; c gray81",
": c #DADADA",
"> c #DDDDDD",
", c gray87",
"< c #DFDFDF",
"1 c gray88",
"2 c #E1E1E1",
"3 c #E2E2E2",
"4 c gray89",
"5 c #E4E4E4",
"6 c gray90",
"7 c gray91",
"8 c #E9E9E9",
"9 c gray92",
"0 c #ECECEC",
"q c gray93",
"w c #EFEFEF",
"e c gray94",
"r c gray95",
"t c #F3F3F3",
"y c gray96",
"u c #F6F6F6",
"i c gray97",
"p c #F8F8F8",
"a c gray98",
"s c #FBFBFB",
"d c gray99",
"f c white",
"g c None",
/* pixels */
"gg@.........@ggg",
"g&afffffffffa%gg",
"@udsssssssssdy+g",
"XpiiiiiiiiiiiuXg",
"XttttttttttttrXg",
"XeeeeeeeeeeeewXg",
"X0000000000009Xg",
"X8888888888887Xg",
"X6666666666665Xg",
"X3333333333332Xg",
"X1,,,,,,,,,,,<Xg",
"X5>:::::::::,4Xg",
"O-7qqqqqqqqq7;og",
"g$**********=#gg",
"ggO .......XOggg",
"gggggggggggggggg"
};
