/* XPM */
static char *checkbox_checked_png[] = {
/* columns rows colors chars-per-pixel */
"16 16 71 1 ",
"  c #2D3436",
". c #2E3436",
"X c #2F3537",
"o c #383E3F",
"O c #393E40",
"+ c #393F41",
"@ c #3A4042",
"# c #3C4243",
"$ c #3D4244",
"% c #3F4546",
"& c #3F4547",
"* c #424849",
"= c #6E7172",
"- c #75787A",
"; c #777B7C",
": c #797D7E",
"> c #7D8082",
", c #818485",
"< c #838788",
"1 c #86898A",
"2 c #8E8F8F",
"3 c #8C8F90",
"4 c #A0A0A0",
"5 c gray63",
"6 c #A2A2A2",
"7 c #A4A4A4",
"8 c #A5A5A5",
"9 c #A7A7A7",
"0 c gray67",
"q c gray68",
"w c gray73",
"e c #C4C6C6",
"r c gray78",
"t c #C7C8C8",
"y c #C8C9C9",
"u c #CACBCB",
"i c #CBCCCC",
"p c #CDCDCD",
"a c #CDCECE",
"s c gray81",
"d c #CFD0D1",
"f c #D2D3D3",
"g c #D5D6D7",
"h c #DADADA",
"j c #DDDDDD",
"k c gray87",
"l c gray88",
"z c #E2E2E2",
"x c gray89",
"c c #E4E4E4",
"v c gray90",
"b c #E6E6E6",
"n c #E7E7E7",
"m c gray91",
"M c #E9E9E9",
"N c #EAEAEA",
"B c gray92",
"V c #ECECEC",
"C c gray93",
"Z c #EFEFEF",
"A c gray94",
"S c gray95",
"D c #F3F3F3",
"F c #F6F6F6",
"G c gray97",
"H c #F8F8F8",
"J c gray98",
"K c #FBFBFB",
"L c gray99",
"P c white",
"I c None",
/* pixels */
"II95555555559III",
"IwKPPPPPPPPPJ=X.",
"9FLKKKKKKKKK3.. ",
"6HGGGGGGGGF1..oI",
"6DDDDDDDDS<..&2I",
"6AAAAAAAZ,..&g6I",
"6VN..;NB>..#dC6I",
"6Mmo..:-..$fVn6I",
"6vvyO....@amvx6I",
"6zzntO..+ibzzl6I",
"6lkkxe%*uxkkkk6I",
"6cjhhlZZlhhhkx6I",
"8smCCCCCCCCCmp8I",
"Iqrrrrrrrrrrr0II",
"II74555555567III",
"IIIIIIIIIIIIIIII"
};
