/* XPM */
static char *checkbox_mixed_hover_png[] = {
/* columns rows colors chars-per-pixel */
"16 16 43 1 ",
"  c #2E3436",
". c #33393B",
"X c #383E3F",
"o c #393E40",
"O c #3C4243",
"+ c #3E4446",
"@ c #909394",
"# c #949798",
"$ c #959899",
"% c #A0A0A0",
"& c gray63",
"* c #A2A2A2",
"= c gray64",
"- c gray65",
"; c #A7A7A7",
": c #B4B4B4",
"> c #B5B5B4",
", c #B7B7B7",
"< c gray73",
"1 c #E0E0DF",
"2 c gray88",
"3 c #E2E2E2",
"4 c #E3E3E2",
"5 c #F4F4F3",
"6 c #F4F4F4",
"7 c #F6F6F5",
"8 c #F6F6F6",
"9 c #F7F7F6",
"0 c gray97",
"q c #F8F8F7",
"w c #F8F8F8",
"e c #F9F9F9",
"r c #FAFAF9",
"t c gray98",
"y c #FBFBFA",
"u c #FBFBFB",
"i c #FCFCFB",
"p c gray99",
"a c #FDFDFC",
"s c #FDFDFD",
"d c #FEFEFE",
"f c white",
"g c None",
/* pixels */
"gg;&&&&&&&&&;ggg",
"g<tffffffffft,gg",
";0ddddddddddd8;g",
"*sddddddddddds=g",
"*ssssssssssssp&g",
"*ssssssssssssp&g",
"*pp$+OOOOO+#pu&g",
"*ppo       Xpu&g",
"*uu@.     .@ut&g",
"*yyiasssssaiyr&g",
"*ewwwwwwwwwwww&g",
"*6977777777795=g",
"-46qqqqqqqqq63-g",
"g>12222222221:gg",
"gg-%&&&&&&&*-ggg",
"gggggggggggggggg"
};
