/* XPM */
static char *checkbox_checked_active_png[] = {
/* columns rows colors chars-per-pixel */
"16 16 85 1 ",
"  c #2D3436",
". c #2E3436",
"X c #2F3537",
"o c #373D3E",
"O c #383D3F",
"+ c #383E3F",
"@ c #393F41",
"# c #394041",
"$ c #3B4142",
"% c #3C4244",
"& c #3D4345",
"* c #3F4545",
"= c #404748",
"- c #646768",
"; c #6C716F",
": c #6C7170",
"> c #707472",
", c #707573",
"< c #717573",
"1 c #717673",
"2 c #707674",
"3 c #717674",
"4 c #8D8E8E",
"5 c #A0A0A0",
"6 c gray63",
"7 c #A1A2A1",
"8 c #A2A2A1",
"9 c #A2A2A2",
"0 c #A2A3A2",
"q c gray64",
"w c #A4A4A4",
"e c #A4A5A4",
"r c #A5A5A5",
"t c #A5A6A5",
"y c gray66",
"u c #AAABAA",
"i c #AFB1AC",
"p c #B2B5AF",
"a c #B3B6B0",
"s c #BFC2BB",
"d c #BEC1BE",
"f c #C0C2BF",
"g c #C2C5BE",
"h c #C3C6BF",
"j c #BFC2C0",
"k c #C0C4C1",
"l c #C2C5C2",
"z c #C3C5C2",
"x c #C3C5C3",
"c c #C4C7C0",
"v c #C4C6C3",
"b c #C3C6C4",
"n c #C5C8C1",
"m c #C7CBC3",
"M c #C8CCC4",
"N c #CACEC6",
"B c #CBCFC7",
"V c #CDD1C9",
"C c #CED2CA",
"Z c #CFD3CB",
"A c #D0D4CC",
"S c #D2D6CE",
"D c #D2D6CF",
"F c #D3D5D1",
"G c #D3D7D0",
"H c #D5D7D3",
"J c #D5D9D2",
"K c #D7DAD3",
"L c #D7D9D6",
"P c #D9DAD7",
"I c #D9DCD5",
"U c #D9DDD6",
"Y c #DADED7",
"T c #DCE0D9",
"R c #DDE0D9",
"E c #DDE0DA",
"W c #DFE2DC",
"Q c #E0E3DD",
"! c #E0E4DD",
"~ c #E3E6E1",
"^ c #E4E6E1",
"/ c #E6E8E4",
"( c #E7E9E5",
") c #ECEEEA",
"_ c None",
/* pixels */
"__q666666666q___",
"_0ipppppppppi-X.",
"wasggggggggg>.. ",
"9hnnnnnnnnc<..+_",
"9MMMMMMMMm2..&4_",
"9BBBBBBBN1..%l6_",
"9ZV..;VC3..#kD6_",
"9SSo..,:..$vKA7_",
"9JJdO....@zUJG8_",
"9IIEfO..@xRIIK9_",
"9TTT!j*=bQTTTY9_",
"9WQQQ^))~QQQQE9_",
"eH~~~~~~~~~~~Ft_",
"_uP/(((((((/Ly__",
"__r566666669r___",
"________________"
};
