/* XPM */
static char *checkbox_unchecked_hover_png[] = {
/* columns rows colors chars-per-pixel */
"16 16 33 1 ",
"  c #A0A0A0",
". c gray63",
"X c #A2A2A2",
"o c gray64",
"O c #A5A5A5",
"+ c gray65",
"@ c #A7A7A7",
"# c gray70",
"$ c #B6B6B5",
"% c gray72",
"& c gray73",
"* c #E0E0DF",
"= c gray88",
"- c #E2E2E2",
"; c gray89",
": c #F4F4F3",
"> c #F4F4F4",
", c #F6F6F5",
"< c #F6F6F6",
"1 c #F7F7F6",
"2 c gray97",
"3 c #F8F8F7",
"4 c #F8F8F8",
"5 c #F9F9F9",
"6 c #FAFAF9",
"7 c gray98",
"8 c #FBFBFA",
"9 c #FBFBFB",
"0 c gray99",
"q c #FDFDFD",
"w c #FEFEFE",
"e c white",
"r c None",
/* pixels */
"rr@.........@rrr",
"r&7eeeeeeeee7%rr",
"@2wwwwwwwwwww<@r",
"Xqwwwwwwwwwww0Xr",
"Xqqqqqqqqqqqq0Xr",
"Xqqqqqqqqqqqq0Xr",
"X0000000000009Xr",
"X0000000000009Xr",
"X9999999999997Xr",
"X8888888888886Xr",
"X5444444444444Xr",
"X>1,,,,,,,,,1:or",
"O;>333333333>-+r",
"r$*=========*#rr",
"rrO .......X+rrr",
"rrrrrrrrrrrrrrrr"
};
