/* XPM */
static char *checkbox_mixed_active_png[] = {
/* columns rows colors chars-per-pixel */
"16 16 53 1 ",
"  c #2E3436",
". c #33393A",
"X c #363D3D",
"o c #373C3E",
"O c #393F40",
"+ c #3A4142",
"@ c #7D827F",
"# c #7E8380",
"$ c #878B8A",
"% c #A0A0A0",
"& c gray63",
"* c #A2A2A1",
"= c #A2A2A2",
"- c gray64",
"; c #A4A4A4",
": c #A5A5A5",
"> c gray65",
", c #AAAAA9",
"< c #AFB1AC",
"1 c #B2B5AF",
"2 c #B3B5B0",
"3 c #B3B6B0",
"4 c #BFC2BB",
"5 c #C2C5BE",
"6 c #C3C6BF",
"7 c #C5C8C1",
"8 c #C7CBC3",
"9 c #C8CCC4",
"0 c #CACEC6",
"q c #CBCFC7",
"w c #CED2CA",
"e c #CFD3CB",
"r c #D1D5CD",
"t c #D2D6CE",
"y c #D4D7D3",
"u c #D5D7D3",
"i c #D4D8D1",
"p c #D5D9D2",
"a c #D8DBD4",
"s c #D8DAD7",
"d c #D9DAD7",
"f c #D9DCD5",
"g c #DBDFD8",
"h c #DCE0D9",
"j c #DFE2DC",
"k c #E0E3DD",
"l c #E3E5E0",
"z c #E3E6E1",
"x c #E6E8E4",
"c c #E7E9E5",
"v c #ECEDEA",
"b c #ECEEEA",
"n c None",
/* pixels */
"nn-&&&&&&&&&=nnn",
"n-<111111111<*nn",
";3455555555542-n",
"&6777777777775=n",
"=9999999999998&n",
"=qqqqqqqqqqqq0&n",
"=ee#+OOOOO+@ew&n",
"=tto       Xtr&n",
"=pp$.     .$pi&n",
"=fflvbbbbbvlfa&n",
"=hhhhhhhhhhhhg&n",
"=jkkkkkkkkkkkj-n",
">uzzzzzzzzzzzy:n",
"n,dxcccccccxs,nn",
"nn>%&&&&&&&=>nnn",
"nnnnnnnnnnnnnnnn"
};
