/* XPM */
static char *checkbox_unchecked_active_png[] = {
/* columns rows colors chars-per-pixel */
"16 16 40 1 ",
"  c #A0A0A0",
". c gray63",
"X c #A2A2A2",
"o c #A2A3A2",
"O c gray64",
"+ c #A4A4A4",
"@ c #A4A5A4",
"# c #A5A5A5",
"$ c gray65",
"% c #A9A9A9",
"& c #AAABAA",
"* c #AFB1AC",
"= c #B0B1AC",
"- c #B2B5AF",
"; c #B3B6B0",
": c #BFC2BB",
"> c #C2C5BE",
", c #C3C6BF",
"< c #C5C8C1",
"1 c #C8CCC4",
"2 c #CBCFC7",
"3 c #CFD3CB",
"4 c #D2D5CE",
"5 c #D2D6CE",
"6 c #D3D6D2",
"7 c #D5D7D3",
"8 c #D4D8D2",
"9 c #D5D9D2",
"0 c #D8DBD4",
"q c #D8DAD7",
"w c #D9DAD7",
"e c #D9DCD5",
"r c #DBDFD8",
"t c #DCE0D9",
"y c #DFE2DC",
"u c #E0E3DD",
"i c #E3E6E1",
"p c #E6E8E4",
"a c #E7E9E5",
"s c None",
/* pixels */
"ssO.........Xsss",
"so*---------=oss",
"+;:>>>>>>>>>:;Xs",
"X,<<<<<<<<<<<>.s",
"X1111111111111Xs",
"X2222222222222Xs",
"X3333333333333Xs",
"X5555555555554Xs",
"X9999999999998Xs",
"Xeeeeeeeeeeee0Xs",
"XttttttttttttrXs",
"XyuuuuuuuuuuuyXs",
"@7iiiiiiiiiii6#s",
"s&wpaaaaaaapq%ss",
"ss# .......X$sss",
"ssssssssssssssss"
};
