/* XPM */
static char *checkbox_unchecked_insensitive_png[] = {
/* columns rows colors chars-per-pixel */
"16 16 17 1 ",
"  c #A0A0A0",
". c gray63",
"X c #A2A2A2",
"o c gray64",
"O c #A5A5A5",
"+ c gray65",
"@ c #A7A7A7",
"# c #AAAAAA",
"$ c #ACACAC",
"% c #E1E1E1",
"& c #E2E2E2",
"* c gray89",
"= c #F1F1F1",
"- c gray95",
"; c #F3F3F3",
": c #F4F4F4",
"> c None",
/* pixels */
">>@.........O>>>",
">#%;:::::::;%#>>",
"@&:::::::::::%+>",
"X;:::::::::::=X>",
"X::::::::::::;X>",
"X::::::::::::;X>",
"X::::::::::::;X>",
"X::::::::::::;X>",
"X::::::::::::;X>",
"X::::::::::::;X>",
"X::::::::::::;X>",
"X;:::::::::::-o>",
"O&:::::::::::%+>",
">$*;:::::::;&#>>",
">>O .......X+>>>",
">>>>>>>>>>>>>>>>"
};
