/* XPM */
static char *checkbox_checked_hover_png[] = {
/* columns rows colors chars-per-pixel */
"16 16 64 1 ",
"  c #2D3436",
". c #2E3436",
"X c #2F3537",
"o c #383E3F",
"O c #393E40",
"+ c #3A4042",
"@ c #3B4143",
"# c #3D4244",
"$ c #3E4446",
"% c #3F4547",
"& c #404647",
"* c #42484A",
"= c #6E7172",
"- c #7C7F81",
"; c #7D8182",
": c #818586",
"> c #848789",
", c #86898A",
"< c #878B8C",
"1 c #8A8D8E",
"2 c #8E8F8F",
"3 c #8D9091",
"4 c #A0A0A0",
"5 c gray63",
"6 c #A2A2A2",
"7 c #A5A5A5",
"8 c gray65",
"9 c #A7A7A7",
"0 c #B1B1B1",
"q c #B6B6B5",
"w c gray73",
"e c #CBCCCD",
"r c #CECFCE",
"t c #CECFCF",
"y c #D0D1D2",
"u c #D2D3D2",
"i c #D3D4D4",
"p c #D4D5D6",
"a c #D6D7D7",
"s c #D8D9DA",
"d c #E0E0DF",
"f c gray88",
"g c #E2E2E1",
"h c gray89",
"j c #F3F3F2",
"k c #F4F4F3",
"l c #F4F4F4",
"z c #F6F6F5",
"x c #F6F6F6",
"c c #F7F7F6",
"v c gray97",
"b c #F8F8F7",
"n c #F8F8F8",
"m c #F9F9F9",
"M c #FAFAF9",
"N c gray98",
"B c #FBFBFA",
"V c #FBFBFB",
"C c #FCFCFB",
"Z c gray99",
"A c #FDFDFD",
"S c #FEFEFE",
"D c white",
"F c None",
/* pixels */
"FF95555555559FFF",
"FwNDDDDDDDDDN=X.",
"9vSSSSSSSSSS3.. ",
"6ASSSSSSSSA1..oF",
"6AAAAAAAAZ<..%2F",
"6AAAAAAAZ,..$s6F",
"6ZN..;NV>..@pN6F",
"6ZZo..:-..#aZm6F",
"6VVtO....+iZVn6F",
"6BBCrO..+uCBBb6F",
"6mnnme&*ymnnnx6F",
"6lczzvMMvzzzcj6F",
"7hlbbbbbbbbbkg8F",
"Fqdffffffffff0FF",
"FF74555555567FFF",
"FFFFFFFFFFFFFFFF"
};
