/* XPM */
static char *checkbox_checked_insensitive_png[] = {
/* columns rows colors chars-per-pixel */
"16 16 43 1 ",
"  c #8D9091",
". c #909393",
"X c #919495",
"o c #939696",
"O c #939697",
"+ c #949697",
"@ c #949798",
"# c #959899",
"$ c #989B9C",
"% c #9A9B9C",
"& c #9EA0A0",
"* c #A0A0A0",
"= c gray63",
"- c #A2A2A2",
"; c #A5A5A5",
": c gray65",
"> c #A7A7A7",
", c #A9A9A9",
"< c #AAAAAA",
"1 c #ACACAC",
"2 c #B3B4B5",
"3 c #B4B6B7",
"4 c #B6B8B9",
"5 c #B7B9BA",
"6 c #B9BABB",
"7 c #BABBBC",
"8 c #BBBDBE",
"9 c #DADBDB",
"0 c #DCDCDD",
"q c #DEDFDF",
"w c #DFDFE0",
"e c gray88",
"r c #E1E1E1",
"t c #E1E2E2",
"y c #E2E2E2",
"u c gray89",
"i c gray94",
"p c #F0F1F1",
"a c #F1F1F1",
"s c gray95",
"d c #F3F3F3",
"f c #F4F4F4",
"g c None",
/* pixels */
"gg>=========:ggg",
"g<rdfffffffdr%  ",
">yffffffffff8   ",
"-dfffffffff7  .g",
"-fffffffff6  #&g",
"-ffffffff5  #w-g",
"-fp  4fd3  +ea-g",
"-fsX  52  @tfa-g",
"-ff0X    Owffa-g",
"-fff0X  oqfffa-g",
"-ffff9#$wffffa-g",
"-dffffdffffffi-g",
";yfffffffffffe:g",
"g1udfffffffdr,gg",
"gg;*=======-:ggg",
"gggggggggggggggg"
};
