/* XPM */
static char *checkbox_mixed_png[] = {
/* columns rows colors chars-per-pixel */
"16 16 52 1 ",
"  c #2E3436",
". c #33393B",
"X c #373D3E",
"o c #383D3F",
"O c #3B4142",
"+ c #3D4345",
"@ c #8A8D8E",
"# c #8C8F90",
"$ c #8D9091",
"% c #A0A0A0",
"& c gray63",
"* c #A2A2A2",
"= c gray64",
"- c #A4A4A4",
"; c #A5A5A5",
": c #A7A7A7",
"> c #ACACAC",
", c gray68",
"< c #B7B7B7",
"1 c gray73",
"2 c gray78",
"3 c #CECECE",
"4 c gray81",
"5 c #DADADA",
"6 c #DDDDDD",
"7 c gray87",
"8 c #DFDFDF",
"9 c gray88",
"0 c #E1E1E1",
"q c #E2E2E2",
"w c #E4E4E4",
"e c gray90",
"r c gray91",
"t c #E9E9E9",
"y c #EAEAEA",
"u c gray92",
"i c #ECECEC",
"p c gray93",
"a c #EFEFEF",
"s c gray94",
"d c #F1F1F1",
"f c gray95",
"g c #F3F3F3",
"h c gray96",
"j c #F6F6F6",
"k c gray97",
"l c #F8F8F8",
"z c gray98",
"x c #FBFBFB",
"c c gray99",
"v c white",
"b c None",
/* pixels */
"bb:&&&&&&&&&:bbb",
"b1zvvvvvvvvvz<bb",
":jcxxxxxxxxxch:b",
"*lkkkkkkkkkkkk=b",
"*ggggggggggggf&b",
"*ssssssssssssa&b",
"*ii$+OOOOO+#iu&b",
"*tto       Xtr&b",
"*ee@.     .@ew&b",
"*qqysdddddsyq0&b",
"*9777777777778&b",
"*w65555555556w=b",
";4rpppppppppr3-b",
"b,22222222222>bb",
"bb-%&&&&&&&*-bbb",
"bbbbbbbbbbbbbbbb"
};
