/* XPM */
static char *combo_entry_ltr_entry_active_png[] = {
/* columns rows colors chars-per-pixel */
"10 32 22 1 ",
"  c #4A90D9",
". c #4C91D9",
"X c #4C92D9",
"o c #5194D9",
"O c #5194DB",
"+ c #619CDA",
"@ c #619DDC",
"# c #629EDD",
"$ c #639EDC",
"% c #A2C3E5",
"& c #A8CAED",
"* c #B8CDE3",
"= c #B9CEE3",
"- c #E8E8E7",
"; c #ECEDEF",
": c gray94",
"> c #F8F9FB",
", c #FBFCFE",
"< c gray99",
"1 c #FDFDFD",
"2 c #FEFEFE",
"3 c white",
/* pixels */
"----------",
"--*+.     ",
"-*o       ",
"-@ %;:::  ",
"-X ><<<<  ",
"-  <<<<<  ",
"-  <<<<<  ",
"-  <<<<<  ",
"-  11111  ",
"-  11111  ",
"-  11111  ",
"-  11111  ",
"-  11111  ",
"-  11111  ",
"-  11111  ",
"-  11111  ",
"-  11111  ",
"-  22222  ",
"-  22222  ",
"-  22222  ",
"-  22222  ",
"-  22222  ",
"-  22222  ",
"-  22222  ",
"-  22222  ",
"-  22222  ",
"-  33333  ",
"-X ,3333  ",
"-# &,333  ",
"-*O       ",
"--=$X     ",
"----------"
};
