/* XPM */
static char *combo_entry_ltr_button_insensitive_png[] = {
/* columns rows colors chars-per-pixel */
"8 32 11 1 ",
"  c #9D9D99",
". c #9E9E9A",
"X c #A2A29F",
"o c #A3A39F",
"O c #A4A4A0",
"+ c #DADAD9",
"@ c #DBDBDA",
"# c #EEEEEE",
"$ c #EFEFEF",
"% c #F1F1F1",
"& c None",
/* pixels */
"&&&&&&&&",
"   .X&&&",
"%%%$@O&&",
"%%%%%+o&",
"%%%%%$.&",
"%%%%%% &",
"%%%%%% &",
"%%%%%% &",
"%%%%%% &",
"%%%%%% &",
"%%%%%% &",
"%%%%%% &",
"%%%%%% &",
"%%%%%% &",
"%%%%%% &",
"%%%%%% &",
"%%%%%% &",
"%%%%%% &",
"%%%%%% &",
"%%%%%% &",
"%%%%%% &",
"%%%%%% &",
"%%%%%% &",
"%%%%%% &",
"%%%%%% &",
"%%%%%% &",
"%%%%%% &",
"%%%%%#.&",
"%%%%%+o&",
"%%%$+O&&",
"   .o&&&",
"&&&&&&&&"
};
