/* XPM */
static char *combo_entry_ltr_button_png[] = {
/* columns rows colors chars-per-pixel */
"8 32 41 1 ",
"  c #9D9D99",
". c #9F9F9B",
"X c #A1A19C",
"o c #A1A19D",
"O c #A2A29F",
"+ c #A5A5A1",
"@ c #A7A7A3",
"# c #C1C1BF",
"$ c #CECECC",
"% c #CFCFCD",
"& c #D0D0CE",
"* c #D1D1CF",
"= c #D2D2D0",
"- c #D3D3D1",
"; c #D4D4D2",
": c #D5D5D3",
"> c #D6D6D4",
", c #D7D7D5",
"< c #D8D8D7",
"1 c #D9D9D8",
"2 c #DADAD9",
"3 c #DBDBDA",
"4 c #DCDCDB",
"5 c #DDDDDC",
"6 c #DEDEDD",
"7 c #DFDFDE",
"8 c #E0E0DF",
"9 c #E1E1E0",
"0 c #E2E2E1",
"q c #E3E3E2",
"w c #E4E4E3",
"e c #E5E5E4",
"r c #E6E6E5",
"t c #E7E7E6",
"y c #E8E8E7",
"u c #E9E9E8",
"i c gray92",
"p c #EEEEED",
"a c gray99",
"s c white",
"d c None",
/* pixels */
"dddddddd",
"    Oddd",
"sssa9+dd",
"yyyup0@d",
"ttttti.d",
"rrrrrt d",
"eeeeee d",
"wwwwww d",
"qqqqqq d",
"000000 d",
"999999 d",
"888888 d",
"777777 d",
"666666 d",
"555555 d",
"444444 d",
"333333 d",
"222222 d",
"111111 d",
"<<<<<< d",
",,,,,, d",
">>>>>> d",
":::::: d",
";;;;;; d",
"------ d",
"====== d",
"****** d",
"&&&&&$ d",
"%%%%%#Xd",
"%%%$#odd",
"    oddd",
"dddddddd"
};
