/* XPM */
static char *combo_entry_ltr_button_hover_png[] = {
/* columns rows colors chars-per-pixel */
"8 32 35 1 ",
"  c #9D9D99",
". c #9E9E9A",
"X c #9F9F9B",
"o c #A1A19D",
"O c #A2A29E",
"+ c #A3A3A0",
"@ c #A6A6A2",
"# c #A8A8A4",
"$ c #CCCCCA",
"% c #DDDDDC",
"& c #DEDEDD",
"* c #DFDFDE",
"= c #E0E0DF",
"- c #E1E1E0",
"; c #E2E2E1",
": c #E3E3E2",
"> c #E4E4E3",
", c #E5E5E4",
"< c #E6E6E5",
"1 c #E7E7E6",
"2 c #E8E8E7",
"3 c #EAEAE9",
"4 c #EBEBEA",
"5 c #EDEDEC",
"6 c #EEEEED",
"7 c #F0F0EF",
"8 c #F1F1F1",
"9 c #F3F3F2",
"0 c #F4F4F4",
"q c #F6F6F6",
"w c gray97",
"e c #F9F9F9",
"r c #FDFDFD",
"t c white",
"y c None",
/* pixels */
"yyyyyyyy",
"   .+yyy",
"tttr>@yy",
"wwwwe:#y",
"qqqqqqXy",
"000000 y",
"999999 y",
"888888 y",
"777777 y",
"666666 y",
"555555 y",
"444444 y",
"333333 y",
"222222 y",
"111111 y",
"111111 y",
"<<<<<< y",
",,,,,, y",
",,,,,, y",
">>>>>> y",
":::::: y",
":::::: y",
";;;;;; y",
"------ y",
"------ y",
"====== y",
"****** y",
"*****% y",
"&&&&&$oy",
"&&&%$Oyy",
"   .Oyyy",
"yyyyyyyy"
};
