/* XPM */
static char *combo_entry_rtl_button_png[] = {
/* columns rows colors chars-per-pixel */
"8 32 42 1 ",
"  c #9D9D99",
". c #9F9F9B",
"X c #A1A19C",
"o c #A1A19D",
"O c #A2A29F",
"+ c #A5A5A2",
"@ c #A7A7A3",
"# c #C1C1BF",
"$ c #C2C2BF",
"% c #CECECC",
"& c #CFCFCD",
"* c #D0D0CE",
"= c #D1D1CF",
"- c #D2D2D0",
"; c #D3D3D1",
": c #D4D4D2",
"> c #D5D5D3",
", c #D6D6D4",
"< c #D7D7D5",
"1 c #D8D8D7",
"2 c #D9D9D8",
"3 c #DADAD9",
"4 c #DBDBDA",
"5 c #DCDCDB",
"6 c #DDDDDC",
"7 c #DEDEDD",
"8 c #DFDFDE",
"9 c #E0E0DF",
"0 c #E1E1E0",
"q c #E2E2E1",
"w c #E3E3E2",
"e c #E4E4E3",
"r c #E5E5E4",
"t c #E6E6E5",
"y c #E7E7E6",
"u c #E8E8E7",
"i c #E9E9E8",
"p c #EBEBEA",
"a c #EEEEED",
"s c gray99",
"d c white",
"f c None",
/* pixels */
"ffffffff",
"fffO    ",
"ff+0sddd",
"f@eaiuuu",
"f.pyyyyy",
"f yttttt",
"f rrrrrr",
"f eeeeee",
"f wwwwww",
"f qqqqqq",
"f 000000",
"f 999999",
"f 888888",
"f 777777",
"f 666666",
"f 555555",
"f 444444",
"f 333333",
"f 222222",
"f 111111",
"f <<<<<<",
"f ,,,,,,",
"f >>>>>>",
"f ::::::",
"f ;;;;;;",
"f ------",
"f ======",
"f &*****",
"fX$&&&&&",
"ffo#%&&&",
"fffX    ",
"ffffffff"
};
