/* XPM */
static char *combo_entry_ltr_button_active_png[] = {
/* columns rows colors chars-per-pixel */
"8 32 37 1 ",
"  c #9D9D99",
". c #9E9E9A",
"X c #9F9F9C",
"o c #A0A09C",
"O c #A1A19C",
"+ c #A1A19D",
"@ c #A2A29D",
"# c #A2A29E",
"$ c #BCBCB9",
"% c #BDBDB9",
"& c #C7C7C4",
"* c #C8C8C5",
"= c #C9C9C6",
"- c #CACAC7",
"; c #CACAC8",
": c #CBCBC8",
"> c #CCCCC9",
", c #CDCDCA",
"< c #CECECB",
"1 c #CECECC",
"2 c #CFCFCD",
"3 c #D0D0CD",
"4 c #D1D1CE",
"5 c #D2D2CF",
"6 c #D2D2D0",
"7 c #D3D3D1",
"8 c #D4D4D2",
"9 c #D5D5D2",
"0 c #D6D6D3",
"q c #D6D6D4",
"w c #D7D7D5",
"e c #D8D8D6",
"r c #D9D9D7",
"t c #DADAD8",
"y c #DBDBD9",
"u c #DCDCDA",
"i c None",
/* pixels */
"iiiiiiii",
"    oiii",
"***&%Oii",
"*****$Xi",
"=====* i",
"------ i",
"------ i",
":::::: i",
">>>>>> i",
",,,,,, i",
"<<<<<< i",
"111111 i",
"222222 i",
"333333 i",
"444444 i",
"555555 i",
"666666 i",
"777777 i",
"888888 i",
"999999 i",
"000000 i",
"qqqqqq i",
"wwwwww i",
"eeeeee i",
"rrrrrr i",
"tttttt i",
"tttttt i",
"yyyyyr i",
"uuuuu;+i",
"uuuy:#ii",
"   .@iii",
"iiiiiiii"
};
