/* XPM */
static char *combo_entry_rtl_button_insensitive_png[] = {
/* columns rows colors chars-per-pixel */
"8 32 14 1 ",
"  c #9D9D99",
". c #9E9E9A",
"X c #A3A39E",
"o c #A2A29F",
"O c #A3A39F",
"+ c #A3A3A0",
"@ c #A4A4A0",
"# c #A4A4A1",
"$ c #DADAD9",
"% c #DBDBDA",
"& c #DCDCDB",
"* c #EFEFEF",
"= c #F1F1F1",
"- c None",
/* pixels */
"--------",
"---+.   ",
"--#%*===",
"-X&=====",
"-.*=====",
"- ======",
"- ======",
"- ======",
"- ======",
"- ======",
"- ======",
"- ======",
"- ======",
"- ======",
"- ======",
"- ======",
"- ======",
"- ======",
"- ======",
"- ======",
"- ======",
"- ======",
"- ======",
"- ======",
"- ======",
"- ======",
"- ======",
"-.*=====",
"-o%=====",
"--@$*===",
"---O.   ",
"--------"
};
