/* XPM */
static char *combo_entry_rtl_entry_png[] = {
/* columns rows colors chars-per-pixel */
"10 32 20 1 ",
"  c #9D9D99",
". c #9E9E9A",
"X c #A2A29E",
"o c #A4A4A0",
"O c #A5A5A1",
"+ c #A6A6A2",
"@ c #A7A7A3",
"# c #A8A8A4",
"$ c #CBCBC8",
"% c #D9D9D8",
"& c #DADAD8",
"* c #DBDBD9",
"= c #E4E4E3",
"- c gray94",
"; c gray98",
": c gray99",
"> c #FDFDFD",
", c #FEFEFE",
"< c white",
"1 c None",
/* pixels */
"1111111111",
"      X111",
" ****&$o11",
" ------%O1",
" ::::::;.1",
" ::::::: 1",
" ::::::: 1",
" ::::::: 1",
" >>>>>>> 1",
" >>>>>>> 1",
" >>>>>>> 1",
" >>>>>>> 1",
" >>>>>>> 1",
" >>>>>>> 1",
" >>>>>>> 1",
" >>>>>>> 1",
" >>>>>>> 1",
" ,,,,,,, 1",
" ,,,,,,, 1",
" ,,,,,,, 1",
" ,,,,,,, 1",
" ,,,,,,, 1",
" ,,,,,,, 1",
" ,,,,,,, 1",
" ,,,,,,, 1",
" ,,,,,,, 1",
" <<<<<<< 1",
" <<<<<<:.1",
" <<<<<<=+1",
" <<<<>=#11",
"     .@111",
"1111111111"
};
