/* XPM */
static char *combo_entry_rtl_button_hover_png[] = {
/* columns rows colors chars-per-pixel */
"8 32 36 1 ",
"  c #9D9D99",
". c #9E9E9A",
"X c #9F9F9B",
"o c #A1A19D",
"O c #A3A39E",
"+ c #A3A3A0",
"@ c #A6A6A3",
"# c #A8A8A4",
"$ c #CCCCCA",
"% c #CDCDCB",
"& c #DDDDDC",
"* c #DEDEDD",
"= c #DFDFDE",
"- c #E0E0DF",
"; c #E1E1E0",
": c #E2E2E1",
"> c #E3E3E2",
", c #E4E4E3",
"< c #E5E5E4",
"1 c #E6E6E5",
"2 c #E7E7E6",
"3 c #E8E8E7",
"4 c #EAEAE9",
"5 c #EBEBEA",
"6 c #EDEDEC",
"7 c #EEEEED",
"8 c #F0F0EF",
"9 c #F1F1F1",
"0 c #F3F3F2",
"q c #F4F4F4",
"w c #F6F6F6",
"e c gray97",
"r c #F9F9F9",
"t c #FDFDFD",
"y c white",
"u c None",
/* pixels */
"uuuuuuuu",
"uuu+.   ",
"uu@,tyyy",
"u#<reeee",
"uXwwwwww",
"u qqqqqq",
"u 000000",
"u 999999",
"u 888888",
"u 777777",
"u 666666",
"u 555555",
"u 444444",
"u 333333",
"u 222222",
"u 222222",
"u 111111",
"u <<<<<<",
"u <<<<<<",
"u ,,,,,,",
"u >>>>>>",
"u >>>>>>",
"u ::::::",
"u ;;;;;;",
"u ;;;;;;",
"u ------",
"u ======",
"u *=====",
"uo%*****",
"uuO$&***",
"uuuo.   ",
"uuuuuuuu"
};
