/* XPM */
static char *combo_entry_ltr_entry_png[] = {
/* columns rows colors chars-per-pixel */
"10 32 24 1 ",
"  c #9D9D99",
". c #9E9E9A",
"X c #9F9F9B",
"o c #A5A5A1",
"O c #A9A9A5",
"+ c #AAAAA7",
"@ c #ADADA9",
"# c #AEAEAB",
"$ c #CACAC8",
"% c #D0D0CF",
"& c #D2D2D1",
"* c #D3D3D2",
"= c #DADAD8",
"- c #DADAD9",
"; c #DBDBD9",
": c #E4E4E3",
"> c #E5E5E4",
", c #E8E8E7",
"< c gray94",
"1 c gray98",
"2 c gray99",
"3 c #FDFDFD",
"4 c #FEFEFE",
"5 c white",
/* pixels */
",,,,,,,,,,",
",,%+.     ",
",%o$=;;;; ",
",@-<<<<<< ",
",X1222222 ",
", 2222222 ",
", 2222222 ",
", 2222222 ",
", 3333333 ",
", 3333333 ",
", 3333333 ",
", 3333333 ",
", 3333333 ",
", 3333333 ",
", 3333333 ",
", 3333333 ",
", 3333333 ",
", 4444444 ",
", 4444444 ",
", 4444444 ",
", 4444444 ",
", 4444444 ",
", 4444444 ",
", 4444444 ",
", 4444444 ",
", 4444444 ",
", 5555555 ",
",X3555555 ",
",#>555555 ",
",&O:35555 ",
",,*#X     ",
",,,,,,,,,,"
};
