/* XPM */
static char *combo_entry_rtl_entry_insensitive_png[] = {
/* columns rows colors chars-per-pixel */
"10 32 11 1 ",
"  c #9D9D99",
". c #9E9E9A",
"X c #A5A5A1",
"o c #A5A5A2",
"O c #A6A6A2",
"+ c #DADAD9",
"@ c #DBDBDA",
"# c #EEEEEE",
"$ c #EFEFEF",
"% c #F1F1F1",
"& c None",
/* pixels */
"&&&&&&&&&&",
"     .o&&&",
" %%%%$@O&&",
" %%%%%%+X&",
" %%%%%%$.&",
" %%%%%%% &",
" %%%%%%% &",
" %%%%%%% &",
" %%%%%%% &",
" %%%%%%% &",
" %%%%%%% &",
" %%%%%%% &",
" %%%%%%% &",
" %%%%%%% &",
" %%%%%%% &",
" %%%%%%% &",
" %%%%%%% &",
" %%%%%%% &",
" %%%%%%% &",
" %%%%%%% &",
" %%%%%%% &",
" %%%%%%% &",
" %%%%%%% &",
" %%%%%%% &",
" %%%%%%% &",
" %%%%%%% &",
" %%%%%%% &",
" %%%%%%#.&",
" %%%%%%+X&",
" %%%%$+O&&",
"     .o&&&",
"&&&&&&&&&&"
};
