/* XPM */
static char *combo_entry_rtl_entry_active_png[] = {
/* columns rows colors chars-per-pixel */
"10 32 19 1 ",
"  c #4A90D9",
". c #4A91D9",
"X c #4B91DA",
"o c #4F92D9",
"O c #5094DB",
"+ c #5495DA",
"@ c #5697DB",
"# c #5698DC",
"$ c #A0C2E5",
"% c #A8C9ED",
"& c #ECEDEF",
"* c gray94",
"= c #F7F9FB",
"- c #FBFCFE",
"; c gray99",
": c #FDFDFD",
"> c #FEFEFE",
", c white",
"< c None",
/* pixels */
"<<<<<<<<<<",
"     X+<<<",
"       o<<",
"  ***&$ @<",
"  ;;;;= X<",
"  ;;;;;  <",
"  ;;;;;  <",
"  ;;;;;  <",
"  :::::  <",
"  :::::  <",
"  :::::  <",
"  :::::  <",
"  :::::  <",
"  :::::  <",
"  :::::  <",
"  :::::  <",
"  :::::  <",
"  >>>>>  <",
"  >>>>>  <",
"  >>>>>  <",
"  >>>>>  <",
"  >>>>>  <",
"  >>>>>  <",
"  >>>>>  <",
"  >>>>>  <",
"  >>>>>  <",
"  ,,,,,  <",
"  ,,,,- X<",
"  ,,,-% @<",
"       O<<",
"     .#<<<",
"<<<<<<<<<<"
};
