/* XPM */
static char *combo_entry_rtl_button_active_png[] = {
/* columns rows colors chars-per-pixel */
"8 32 36 1 ",
"  c #9D9D99",
". c #9E9E9A",
"X c #A0A09C",
"o c #A0A09D",
"O c #A1A19D",
"+ c #A2A29E",
"@ c #BCBCB9",
"# c #BDBDBA",
"$ c #C7C7C4",
"% c #C8C8C5",
"& c #C9C9C6",
"* c #CACAC7",
"= c #CACAC8",
"- c #CBCBC8",
"; c #CBCBC9",
": c #CCCCC9",
"> c #CDCDCA",
", c #CECECB",
"< c #CECECC",
"1 c #CFCFCD",
"2 c #D0D0CD",
"3 c #D1D1CE",
"4 c #D2D2CF",
"5 c #D2D2D0",
"6 c #D3D3D1",
"7 c #D4D4D2",
"8 c #D5D5D2",
"9 c #D6D6D3",
"0 c #D6D6D4",
"q c #D7D7D5",
"w c #D8D8D6",
"e c #D9D9D7",
"r c #DADAD8",
"t c #DBDBD9",
"y c #DCDCDA",
"u c None",
/* pixels */
"uuuuuuuu",
"uuuX    ",
"uuo@$%%%",
"uX#%%%%%",
"u %&&&&&",
"u ******",
"u ******",
"u ------",
"u ::::::",
"u >>>>>>",
"u ,,,,,,",
"u <<<<<<",
"u 111111",
"u 222222",
"u 333333",
"u 444444",
"u 555555",
"u 666666",
"u 777777",
"u 888888",
"u 999999",
"u 000000",
"u qqqqqq",
"u wwwwww",
"u eeeeee",
"u rrrrrr",
"u rrrrrr",
"u rttttt",
"uO;yyyyy",
"uu+=tyyy",
"uuuO.   ",
"uuuuuuuu"
};
