/* XPM */
static char *entry_insensitive_png[] = {
/* columns rows colors chars-per-pixel */
"10 32 15 1 ",
"  c #9D9D99",
". c #9F9F9B",
"X c #A7A7A3",
"o c #A7A7A4",
"O c #ADADA9",
"+ c #ADADAA",
"@ c #AEAEAA",
"# c #D1D1CF",
"$ c #D2D2D0",
"% c #DADAD9",
"& c #DBDBDA",
"* c #E8E8E7",
"= c #EEEEEE",
"- c #EFEFEF",
"; c #F1F1F1",
/* pixels */
"**********",
"**#+..+#**",
"*#o&--&X$*",
"*O&;;;;%O*",
"*.-;;;;-.*",
"* ;;;;;; *",
"* ;;;;;; *",
"* ;;;;;; *",
"* ;;;;;; *",
"* ;;;;;; *",
"* ;;;;;; *",
"* ;;;;;; *",
"* ;;;;;; *",
"* ;;;;;; *",
"* ;;;;;; *",
"* ;;;;;; *",
"* ;;;;;; *",
"* ;;;;;; *",
"* ;;;;;; *",
"* ;;;;;; *",
"* ;;;;;; *",
"* ;;;;;; *",
"* ;;;;;; *",
"* ;;;;;; *",
"* ;;;;;; *",
"* ;;;;;; *",
"* ;;;;;; *",
"*.-;;;;=.*",
"*+&;;;;%O*",
"*#X%--%X$*",
"**$O..@$**",
"**********"
};
