/* XPM */
static char *entry_active_png[] = {
/* columns rows colors chars-per-pixel */
"10 32 31 1 ",
"  c #4A90D9",
". c #4C91D9",
"X c #4C92D9",
"o c #5093D9",
"O c #5193D9",
"+ c #5294DB",
"@ c #609CDA",
"# c #619DDC",
"$ c #639EDC",
"% c #639FDD",
"& c #649FDD",
"* c #64A0DD",
"= c #A0C2E5",
"- c #A2C3E5",
"; c #A8C9ED",
": c #A8CAED",
"> c #B7CCE3",
", c #B8CDE3",
"< c #B9CEE5",
"1 c #BACEE4",
"2 c #BACFE5",
"3 c #E8E8E7",
"4 c #ECEDEF",
"5 c #F7F9FB",
"6 c #F8F9FB",
"7 c #FAFCFE",
"8 c #FBFCFE",
"9 c gray99",
"0 c #FDFDFD",
"q c #FEFEFE",
"w c white",
/* pixels */
"3333333333",
"33>@..@>33",
"3>O    o,3",
"3# -44= $3",
"3X 6995 X3",
"3  9999  3",
"3  9999  3",
"3  9999  3",
"3  0000  3",
"3  0000  3",
"3  0000  3",
"3  0000  3",
"3  0000  3",
"3  0000  3",
"3  0000  3",
"3  0000  3",
"3  0000  3",
"3  qqqq  3",
"3  qqqq  3",
"3  qqqq  3",
"3  qqqq  3",
"3  qqqq  3",
"3  qqqq  3",
"3  qqqq  3",
"3  qqqq  3",
"3  qqqq  3",
"3  wwww  3",
"3X 8ww7 X3",
"3% :88; &3",
"3<+    +13",
"332&XX*133",
"3333333333"
};
