/* XPM */
static char *entry_background_png[] = {
/* columns rows colors chars-per-pixel */
"4 24 4 1 ",
"  c gray99",
". c #FDFDFD",
"X c #FEFEFE",
"o c white",
/* pixels */
"    ",
"    ",
"    ",
"    ",
"....",
"....",
"....",
"....",
"....",
"....",
"....",
"....",
"....",
"XXXX",
"XXXX",
"XXXX",
"XXXX",
"XXXX",
"XXXX",
"XXXX",
"XXXX",
"XXXX",
"oooo",
"oooo"
};
