/* XPM */
static char *entry_png[] = {
/* columns rows colors chars-per-pixel */
"10 32 28 1 ",
"  c #9D9D99",
". c #9E9E9A",
"X c #9F9F9B",
"o c #A5A5A1",
"O c #A9A9A5",
"+ c #AAAAA7",
"@ c #ADADA9",
"# c #ADADAA",
"$ c #AEAEAB",
"% c #AFAFAC",
"& c #CACAC8",
"* c #CBCBC8",
"= c #D0D0CF",
"- c #D1D1D0",
"; c #D2D2D1",
": c #D3D3D2",
"> c #D9D9D8",
", c #DADAD8",
"< c #DADAD9",
"1 c #E4E4E3",
"2 c #E5E5E4",
"3 c #E8E8E7",
"4 c gray94",
"5 c gray98",
"6 c gray99",
"7 c #FDFDFD",
"8 c #FEFEFE",
"9 c white",
/* pixels */
"3333333333",
"33=+..+=33",
"3=o&,,*o-3",
"3@<4444>#3",
"3X566665X3",
"3 666666 3",
"3 666666 3",
"3 666666 3",
"3 777777 3",
"3 777777 3",
"3 777777 3",
"3 777777 3",
"3 777777 3",
"3 777777 3",
"3 777777 3",
"3 777777 3",
"3 777777 3",
"3 888888 3",
"3 888888 3",
"3 888888 3",
"3 888888 3",
"3 888888 3",
"3 888888 3",
"3 888888 3",
"3 888888 3",
"3 888888 3",
"3 999999 3",
"3X799996X3",
"3$299991$3",
"3;O1771O;3",
"33:$XX%;33",
"3333333333"
};
