/* XPM */
static char *handle_png[] = {
/* columns rows colors chars-per-pixel */
"3 15 2 1 ",
"  c #9D9D99",
". c None",
/* pixels */
"   ",
"   ",
"   ",
"...",
"...",
"...",
"   ",
"   ",
"   ",
"...",
"...",
"...",
"   ",
"   ",
"   "
};
