/* XPM */
static char *handle_vert_png[] = {
/* columns rows colors chars-per-pixel */
"9 1 2 1 ",
"  c #9D9D99",
". c None",
/* pixels */
".... ...."
};
