/* XPM */
static char *handle_horz_png[] = {
/* columns rows colors chars-per-pixel */
"1 9 2 1 ",
"  c #9D9D99",
". c None",
/* pixels */
".",
".",
".",
".",
" ",
".",
".",
".",
"."
};
