/* XPM */
static char *menu_radio_png[] = {
/* columns rows colors chars-per-pixel */
"16 16 10 1 ",
"  c #2E3335",
". c #2E3336",
"X c #2F3336",
"o c #2E3435",
"O c #2D3436",
"+ c #2D3537",
"@ c #2E3436",
"# c #2E3536",
"$ c #2F3536",
"% c None",
/* pixels */
"%%%%%%%%%%%%%%%%",
"%%%%%+o@@@%%%%%%",
"%%%%@O%%%%##%%%%",
"%%%@%%%%%%%%.%%%",
"%%@%%%%%%%%%%#%%",
"% o%%%%%%%%%%@%%",
"%@%%%%%%%%%%%%O%",
"%@%%%%%%%%%%%%@%",
"%@%%%%%%%%%%%%#%",
"%@%%%%%%%%%%%%@%",
"%$O%%%%%%%%%%#%%",
"%%@%%%%%%%%%%@%%",
"%%%.%%%%%%%%@%%%",
"%%%%@O%%%%O@%%%%",
"%%%%% o@@X@%%%%%",
"%%%%%%%%%%%%%%%%"
};
