/* XPM */
static char *menu_checkbox_mixed_hover_png[] = {
/* columns rows colors chars-per-pixel */
"16 16 2 1 ",
"  c white",
". c None",
/* pixels */
"................",
"..            ..",
". ............ .",
". ............ .",
". ............ .",
". ............ .",
". ..        .. .",
". .          . .",
". .          . .",
". ..        .. .",
". ............ .",
". ............ .",
". ............ .",
". ............ .",
"..            ..",
"................"
};
