/* XPM */
static char *menu_checkbox_png[] = {
/* columns rows colors chars-per-pixel */
"16 16 5 1 ",
"  c #2E3435",
". c #2E3436",
"X c #2E3536",
"o c #2E3437",
"O c None",
/* pixels */
"OOOOOOOOOOOOOOOO",
"OOo...........OO",
"O.OOOOOOOOOOOOXO",
"O.OOOOOOOOOOOO.O",
"O.OOOOOOOOOOOO.O",
"O.OOOOOOOOOOOO.O",
"O.OOOOOOOOOOOO.O",
"O.OOOOOOOOOOOO.O",
"O.OOOOOOOOOOOO.O",
"O.OOOOOOOOOOOO.O",
"O.OOOOOOOOOOOO.O",
"O.OOOOOOOOOOOO.O",
"O.OOOOOOOOOOOO.O",
"O OOOOOOOOOOOO.O",
"OOX...........OO",
"OOOOOOOOOOOOOOOO"
};
