/* XPM */
static char *menu_checkbox_mixed_insensitive_png[] = {
/* columns rows colors chars-per-pixel */
"16 16 8 1 ",
"  c #8A8E8E",
". c #8A8E8F",
"X c #8B8E8F",
"o c #8A8F8F",
"O c #8B8F8F",
"+ c #8B8E90",
"@ c #8C8E90",
"# c None",
/* pixels */
"################",
"##@XXXXXXXXXX ##",
"#@############X#",
"#X############X#",
"#X############X#",
"#X############X#",
"#X##.OOOOOOX##X#",
"#X#XXXXXXXXX+#X#",
"#X#XXXXXXXXXO#X#",
"#X##XXXXXXXX##X#",
"#X############X#",
"#X############X#",
"#X############X#",
"#X############X#",
"## XXXXXXXXXXo##",
"################"
};
