/* XPM */
static char *menu_radio_mixed_insensitive_png[] = {
/* columns rows colors chars-per-pixel */
"16 16 11 1 ",
"  c #8B8D8F",
". c #8A8E8E",
"X c #8B8E8E",
"o c #8A8E8F",
"O c #8B8E8F",
"+ c #8B8F8F",
"@ c #8C8D8F",
"# c #8C8E8F",
"$ c #8A8E90",
"% c #8B8E90",
"& c None",
/* pixels */
"&&&&&&&&&&&&&&&&",
"&&&&&&OOOO&&&&&&",
"&&&&%X&&&&O+&&&&",
"&&&O&&&&&&&&%&&&",
"&&O&&&&&&&&&&O&&",
"& X&&&&&&&&&&@&&",
"&O&&o++++++O&&X&",
"&O&OOOOOOOOO%&O&",
"&%&OOOOOOOOO+&+&",
"&O&&OOOOOOOO&&+&",
"&++&&&&&&&&&&o.&",
"&&O&&&&&&&&&&O&&",
"&&&O&&&&&&&&X&&&",
"&&&&O&&&&&$O&&&&",
"&&&&&X#%%++&&&&&",
"&&&&&&&&&&&&&&&&"
};
