/* XPM */
static char *menu_radio_insensitive_png[] = {
/* columns rows colors chars-per-pixel */
"16 16 8 1 ",
"  c #8B8D8F",
". c #8A8E8F",
"X c #8B8E8F",
"o c #8B8F8F",
"O c #8C8D8F",
"+ c #8C8E8F",
"@ c #8A8E90",
"# c None",
/* pixels */
"################",
"##### XXXX######",
"####XO####oX####",
"###X########X###",
"##X##########X##",
"#oo##########@##",
"# ############ #",
"#X############X#",
"#X############o#",
"#+############X#",
"#oo##########o##",
"##X##########X##",
"###+########X###",
"####Xo####OX####",
"#####o.XXXo#####",
"################"
};
