/* XPM */
static char *menu_pan_up_png[] = {
/* columns rows colors chars-per-pixel */
"16 16 3 1 ",
"  c #2E3436",
". c #2F3536",
"X c None",
/* pixels */
"XXXXXXXXXXXXXXXX",
"XXXXXXXXXXXXXXXX",
"XXXXXXXXXXXXXXXX",
"XXXXXXXXXXXXXXXX",
"XXXXXXXXXXXXXXXX",
"XXXXXXX .XXXXXXX",
"XXXXXX   .XXXXXX",
"XXXXX     .XXXXX",
"XXXX       .XXXX",
"XXX         .XXX",
"XXXXXXXXXXXXXXXX",
"XXXXXXXXXXXXXXXX",
"XXXXXXXXXXXXXXXX",
"XXXXXXXXXXXXXXXX",
"XXXXXXXXXXXXXXXX",
"XXXXXXXXXXXXXXXX"
};
