/* XPM */
static char *menu_radio_checked_png[] = {
/* columns rows colors chars-per-pixel */
"16 16 12 1 ",
"  c #2D3335",
". c #2E3335",
"X c #2E3336",
"o c #2E3435",
"O c #2D3436",
"+ c #2D3537",
"@ c #2E3436",
"# c #2F3436",
"$ c #2E3536",
"% c #2E3537",
"& c #2F3537",
"* c None",
/* pixels */
"****************",
"******@X@$******",
"****@@****@o****",
"***X********@***",
"**$**********O**",
"*+%***@@@@***O**",
"*@***@@@@@&***#*",
"*@***@@@@@@***@*",
"*@***@@@@@@***$*",
"*@***@@@@@+***$*",
"*O@***&@@ ***. *",
"**@**********@**",
"***@********@***",
"****$*****@@****",
"*****#X@@@o*****",
"****************"
};
