/* XPM */
static char *menu_pan_up_insensitive_png[] = {
/* columns rows colors chars-per-pixel */
"16 16 4 1 ",
"  c #8B8D8F",
". c #8B8E8F",
"X c #8B8F8F",
"o c None",
/* pixels */
"oooooooooooooooo",
"oooooooooooooooo",
"oooooooooooooooo",
"oooooooooooooooo",
"oooooooooooooooo",
"ooooooo Xooooooo",
"oooooo ..Xoooooo",
"ooooo ....Xooooo",
"oooo ......Xoooo",
"ooo ........Xooo",
"oooooooooooooooo",
"oooooooooooooooo",
"oooooooooooooooo",
"oooooooooooooooo",
"oooooooooooooooo",
"oooooooooooooooo"
};
