/* XPM */
static char *menu_checkbox_checked_insensitive_png[] = {
/* columns rows colors chars-per-pixel */
"16 16 13 1 ",
"  c #8A8D8E",
". c #8B8D8F",
"X c #8A8E8E",
"o c #8B8E8E",
"O c #8B8E8F",
"+ c #8A8F8F",
"@ c #8B8F8F",
"# c #8C8D8F",
"$ c #8C8E8F",
"% c #8A8E90",
"& c #8B8E90",
"* c #8C8E90",
"= c None",
/* pixels */
"================",
"==*OOOOOOOOOOX==",
"=*============ =",
"=O===========.o=",
"=O==========XO$=",
"=O=========@OO$=",
"=O========#OOOO=",
"=O===.O&=#OOO.O=",
"=O===OOOOOOO.=O=",
"=O===%OOOOO#==O=",
"=O====%OOO#===O=",
"=O=====#O#====O=",
"=O============O=",
"=O============O=",
"==XOOOOOOOOOO+==",
"================"
};
