/* XPM */
static char *menu_checkbox_checked_png[] = {
/* columns rows colors chars-per-pixel */
"16 16 12 1 ",
"  c #2D3335",
". c #2E3335",
"X c #2D3435",
"o c #2E3435",
"O c #2F3435",
"+ c #2D3436",
"@ c #2E3436",
"# c #2F3436",
"$ c #2E3536",
"% c #2E3437",
"& c #2F3537",
"* c None",
/* pixels */
"****************",
"**@@@@@@@@@@@@**",
"*@************@*",
"*@*********** %*",
"*@**********&@@*",
"*@*********o@@@*",
"*@********O@@@@*",
"*@***@@X*O@@@.@*",
"*@***@@@#@@@.*@*",
"*@***@@@@@@+**@*",
"*@****@@@@+***@*",
"*@*****+@+****@*",
"*@************@*",
"*$************%*",
"**@@@@@@@@@@@O**",
"****************"
};
