/* XPM */
static char *menu_radio_checked_hover_png[] = {
/* columns rows colors chars-per-pixel */
"16 16 2 1 ",
"  c white",
". c None",
/* pixels */
"................",
"......    ......",
"....  ....  ....",
"... ........ ...",
".. .......... ..",
".  ...    ... ..",
". ...      ... .",
". ...      ... .",
". ...      ... .",
". ...      ... .",
".  ...    ...  .",
".. .......... ..",
"... ........ ...",
".... .....  ....",
".....      .....",
"................"
};
