/* XPM */
static char *notebook_combo_entry_rtl_entry_active_png[] = {
/* columns rows colors chars-per-pixel */
"10 32 13 1 ",
"  c #4A90D9",
". c #4C92DA",
"X c #5294DB",
"o c #65A1DF",
"O c #66A1DF",
"+ c #66A2DF",
"@ c #A8C9ED",
"# c #A8CAED",
"$ c #C9DEF4",
"% c #CADEF4",
"& c #FAFCFE",
"* c #FBFCFE",
"= c white",
/* pixels */
"==========",
"     .o$==",
"       X$=",
"  ===*# O=",
"  ====& .=",
"  =====  =",
"  =====  =",
"  =====  =",
"  =====  =",
"  =====  =",
"  =====  =",
"  =====  =",
"  =====  =",
"  =====  =",
"  =====  =",
"  =====  =",
"  =====  =",
"  =====  =",
"  =====  =",
"  =====  =",
"  =====  =",
"  =====  =",
"  =====  =",
"  =====  =",
"  =====  =",
"  =====  =",
"  =====  =",
"  ====* .=",
"  ===*@ O=",
"       X%=",
"     .+%==",
"=========="
};
