/* XPM */
static char *notebook_combo_entry_ltr_entry_insensitive_png[] = {
/* columns rows colors chars-per-pixel */
"10 32 13 1 ",
"  c #9D9D99",
". c #9F9F9B",
"X c #A7A7A4",
"o c #A8A8A4",
"O c #B0B0AC",
"+ c #B0B0AD",
"@ c #DADAD9",
"# c #DBDBDA",
"$ c #E0E0DF",
"% c #E1E1E0",
"& c #EFEFEF",
"* c #F1F1F1",
"= c white",
/* pixels */
"==========",
"==$+.     ",
"=$X#&**** ",
"=O#****** ",
"=.&****** ",
"= ******* ",
"= ******* ",
"= ******* ",
"= ******* ",
"= ******* ",
"= ******* ",
"= ******* ",
"= ******* ",
"= ******* ",
"= ******* ",
"= ******* ",
"= ******* ",
"= ******* ",
"= ******* ",
"= ******* ",
"= ******* ",
"= ******* ",
"= ******* ",
"= ******* ",
"= ******* ",
"= ******* ",
"= ******* ",
"=.&****** ",
"=+#****** ",
"=$o@&**** ",
"==%+.     ",
"=========="
};
