/* XPM */
static char *notebook_combo_entry_rtl_entry_insensitive_png[] = {
/* columns rows colors chars-per-pixel */
"10 32 12 1 ",
"  c #9D9D99",
". c #9F9F9B",
"X c #A8A8A4",
"o c #B0B0AD",
"O c #B1B1AE",
"+ c #DADAD9",
"@ c #DBDBDA",
"# c #E1E1E0",
"$ c #EEEEEE",
"% c #EFEFEF",
"& c #F1F1F1",
"* c white",
/* pixels */
"**********",
"     .o#**",
" &&&&%@X#*",
" &&&&&&+o*",
" &&&&&&%.*",
" &&&&&&& *",
" &&&&&&& *",
" &&&&&&& *",
" &&&&&&& *",
" &&&&&&& *",
" &&&&&&& *",
" &&&&&&& *",
" &&&&&&& *",
" &&&&&&& *",
" &&&&&&& *",
" &&&&&&& *",
" &&&&&&& *",
" &&&&&&& *",
" &&&&&&& *",
" &&&&&&& *",
" &&&&&&& *",
" &&&&&&& *",
" &&&&&&& *",
" &&&&&&& *",
" &&&&&&& *",
" &&&&&&& *",
" &&&&&&& *",
" &&&&&&$.*",
" &&&&&&+o*",
" &&&&%+X#*",
"     .O#**",
"**********"
};
