/* XPM */
static char *notebook_combo_entry_ltr_entry_active_png[] = {
/* columns rows colors chars-per-pixel */
"10 32 13 1 ",
"  c #4A90D9",
". c #4C92DA",
"X c #5294DB",
"o c #5295DB",
"O c #64A0DF",
"+ c #65A1DF",
"@ c #66A1DF",
"# c #A8CAED",
"$ c #AACBED",
"% c #C8DDF4",
"& c #C9DEF4",
"* c #FBFCFE",
"= c white",
/* pixels */
"==========",
"==%+.     ",
"=%o       ",
"=O $*===  ",
"=. *====  ",
"=  =====  ",
"=  =====  ",
"=  =====  ",
"=  =====  ",
"=  =====  ",
"=  =====  ",
"=  =====  ",
"=  =====  ",
"=  =====  ",
"=  =====  ",
"=  =====  ",
"=  =====  ",
"=  =====  ",
"=  =====  ",
"=  =====  ",
"=  =====  ",
"=  =====  ",
"=  =====  ",
"=  =====  ",
"=  =====  ",
"=  =====  ",
"=  =====  ",
"=. *====  ",
"=+ #*===  ",
"=%X       ",
"==&@.     ",
"=========="
};
