/* XPM */
static char *notebook_combo_entry_rtl_entry_png[] = {
/* columns rows colors chars-per-pixel */
"10 32 22 1 ",
"  c #9D9D99",
". c #9F9F9B",
"X c #A5A5A1",
"o c #A9A9A5",
"O c #ADADAA",
"+ c #B0B0AD",
"@ c #B1B1AE",
"# c #B2B2AF",
"$ c #CBCBC8",
"% c #D9D9D8",
"& c #DADAD8",
"* c #DBDBD9",
"= c #E0E0DF",
"- c #E1E1E0",
"; c #E2E2E1",
": c #E4E4E3",
"> c gray94",
", c gray98",
"< c gray99",
"1 c #FDFDFD",
"2 c #FEFEFE",
"3 c white",
/* pixels */
"3333333333",
"     .O=33",
" ****&$X-3",
" >>>>>>%+3",
" <<<<<<,.3",
" <<<<<<< 3",
" <<<<<<< 3",
" <<<<<<< 3",
" 1111111 3",
" 1111111 3",
" 1111111 3",
" 1111111 3",
" 1111111 3",
" 1111111 3",
" 1111111 3",
" 1111111 3",
" 1111111 3",
" 2222222 3",
" 2222222 3",
" 2222222 3",
" 2222222 3",
" 2222222 3",
" 2222222 3",
" 2222222 3",
" 2222222 3",
" 2222222 3",
" 3333333 3",
" 333333<.3",
" 333333:@3",
" 33331:o;3",
"     .#;33",
"3333333333"
};
