/* XPM */
static char *notebook_entry_png[] = {
/* columns rows colors chars-per-pixel */
"10 32 27 1 ",
"  c #9D9D99",
". c #9F9F9B",
"X c #A5A5A1",
"o c #A5A5A2",
"O c #A9A9A5",
"+ c #ADADAA",
"@ c #B0B0AC",
"# c #B0B0AD",
"$ c #B1B1AE",
"% c #B2B2AF",
"& c #CACAC8",
"* c #CBCBC8",
"= c #D9D9D8",
"- c #DADAD8",
"; c #DADAD9",
": c #DFDFDE",
"> c #E0E0DF",
", c #E1E1E0",
"< c #E2E2E1",
"1 c #E4E4E3",
"2 c #E5E5E4",
"3 c gray94",
"4 c gray98",
"5 c gray99",
"6 c #FDFDFD",
"7 c #FEFEFE",
"8 c white",
/* pixels */
"8888888888",
"88:+..+:88",
"8>o&--*X,8",
"8@;3333=#8",
"8.455554.8",
"8 555555 8",
"8 555555 8",
"8 555555 8",
"8 666666 8",
"8 666666 8",
"8 666666 8",
"8 666666 8",
"8 666666 8",
"8 666666 8",
"8 666666 8",
"8 666666 8",
"8 666666 8",
"8 777777 8",
"8 777777 8",
"8 777777 8",
"8 777777 8",
"8 777777 8",
"8 777777 8",
"8 777777 8",
"8 777777 8",
"8 777777 8",
"8 888888 8",
"8.688885.8",
"8$288881$8",
"8,O1661O<8",
"88<$..%<88",
"8888888888"
};
