/* XPM */
static char *notebook_entry_active_png[] = {
/* columns rows colors chars-per-pixel */
"10 32 31 1 ",
"  c #4A90D9",
". c #4C92D9",
"X c #4C92DA",
"o c #5093D9",
"O c #5194D9",
"+ c #5294DB",
"@ c #629EDC",
"# c #639FDE",
"$ c #65A0DE",
"% c #65A1DF",
"& c #66A1DF",
"* c #66A2DF",
"= c #A0C2E5",
"- c #A2C3E5",
"; c #A8C9ED",
": c #A8CAED",
"> c #C6DBF2",
", c #C7DCF3",
"< c #C8DDF3",
"1 c #C8DDF4",
"2 c #C9DEF4",
"3 c #CADEF4",
"4 c #ECEDEF",
"5 c #F7F9FB",
"6 c #F8F9FB",
"7 c #FAFCFE",
"8 c #FBFCFE",
"9 c gray99",
"0 c #FDFDFD",
"q c #FEFEFE",
"w c white",
/* pixels */
"wwwwwwwwww",
"ww>@..@>ww",
"w,O    o<w",
"w# -44= $w",
"wX 6995 Xw",
"w  9999  w",
"w  9999  w",
"w  9999  w",
"w  0000  w",
"w  0000  w",
"w  0000  w",
"w  0000  w",
"w  0000  w",
"w  0000  w",
"w  0000  w",
"w  0000  w",
"w  0000  w",
"w  qqqq  w",
"w  qqqq  w",
"w  qqqq  w",
"w  qqqq  w",
"w  qqqq  w",
"w  qqqq  w",
"w  qqqq  w",
"w  qqqq  w",
"w  qqqq  w",
"w  wwww  w",
"wX 8ww7 Xw",
"w% :88; &w",
"w1+    +3w",
"ww2&XX*3ww",
"wwwwwwwwww"
};
