/* XPM */
static char *notebook_entry_insensitive_png[] = {
/* columns rows colors chars-per-pixel */
"10 32 15 1 ",
"  c #9D9D99",
". c #9F9F9B",
"X c #A8A8A4",
"o c #A8A8A5",
"O c #B0B0AC",
"+ c #B0B0AD",
"@ c #B1B1AE",
"# c #DADAD9",
"$ c #DBDBDA",
"% c #E1E1E0",
"& c #E2E2E1",
"* c #EEEEEE",
"= c #EFEFEF",
"- c #F1F1F1",
"; c white",
/* pixels */
";;;;;;;;;;",
";;%+..+%;;",
";%o$==$X&;",
";O$----#+;",
";.=----=.;",
"; ------ ;",
"; ------ ;",
"; ------ ;",
"; ------ ;",
"; ------ ;",
"; ------ ;",
"; ------ ;",
"; ------ ;",
"; ------ ;",
"; ------ ;",
"; ------ ;",
"; ------ ;",
"; ------ ;",
"; ------ ;",
"; ------ ;",
"; ------ ;",
"; ------ ;",
"; ------ ;",
"; ------ ;",
"; ------ ;",
"; ------ ;",
"; ------ ;",
";.=----*.;",
";+$----#+;",
";%X#==#X&;",
";;&+..@&;;",
";;;;;;;;;;"
};
