/* XPM */
static char *notebook_combo_entry_ltr_entry_png[] = {
/* columns rows colors chars-per-pixel */
"10 32 23 1 ",
"  c #9D9D99",
". c #9F9F9B",
"X c #A5A5A2",
"o c #A9A9A5",
"O c #ADADAA",
"+ c #B0B0AC",
"@ c #B1B1AE",
"# c #CACAC8",
"$ c #DADAD8",
"% c #DADAD9",
"& c #DBDBD9",
"* c #DFDFDE",
"= c #E0E0DF",
"- c #E1E1E0",
"; c #E2E2E1",
": c #E4E4E3",
"> c #E5E5E4",
", c gray94",
"< c gray98",
"1 c gray99",
"2 c #FDFDFD",
"3 c #FEFEFE",
"4 c white",
/* pixels */
"4444444444",
"44*O.     ",
"4=X#$&&&& ",
"4+%,,,,,, ",
"4.<111111 ",
"4 1111111 ",
"4 1111111 ",
"4 1111111 ",
"4 2222222 ",
"4 2222222 ",
"4 2222222 ",
"4 2222222 ",
"4 2222222 ",
"4 2222222 ",
"4 2222222 ",
"4 2222222 ",
"4 2222222 ",
"4 3333333 ",
"4 3333333 ",
"4 3333333 ",
"4 3333333 ",
"4 3333333 ",
"4 3333333 ",
"4 3333333 ",
"4 3333333 ",
"4 3333333 ",
"4 4444444 ",
"4.2444444 ",
"4@>444444 ",
"4-o:24444 ",
"44;@.     ",
"4444444444"
};
