/* XPM */
static char *pan_right_semi_png[] = {
/* columns rows colors chars-per-pixel */
"16 16 3 1 ",
"  c #2E3436",
". c #2E3536",
"X c None",
/* pixels */
"XXXXXXXXXXXXXXXX",
"XXXXXXXXXXXXXXXX",
"XXXXXXXXXXXXXXXX",
"XXXXXXXXX XXXXXX",
"XXXXXXXX  XXXXXX",
"XXXXXXX   XXXXXX",
"XXXXXX    XXXXXX",
"XXXXX     XXXXXX",
"XXXX      XXXXXX",
"XXXX......XXXXXX",
"XXXXXXXXXXXXXXXX",
"XXXXXXXXXXXXXXXX",
"XXXXXXXXXXXXXXXX",
"XXXXXXXXXXXXXXXX",
"XXXXXXXXXXXXXXXX",
"XXXXXXXXXXXXXXXX"
};
