/* XPM */
static char *pan_left_png[] = {
/* columns rows colors chars-per-pixel */
"16 16 2 1 ",
"  c #2E3436",
". c None",
/* pixels */
"................",
"................",
"................",
"......... ......",
"........  ......",
".......   ......",
"......    ......",
".....     ......",
"......    ......",
".......   ......",
"........  ......",
"......... ......",
"......... ......",
"................",
"................",
"................"
};
