/* XPM */
static char *progressbar_horz_trough_png[] = {
/* columns rows colors chars-per-pixel */
"7 6 8 1 ",
"  c #9D9D99",
". c #9F9F9B",
"X c #9F9F9C",
"o c #C2C2C0",
"O c #C3C3C0",
"+ c #C3C3C1",
"@ c #CECECC",
"# c None",
/* pixels */
"#######",
"##. .##",
"#.+@oX#",
"#.o@OX#",
"##. X##",
"#######"
};
