/* XPM */
static char *progressbar_vert_png[] = {
/* columns rows colors chars-per-pixel */
"4 5 9 1 ",
"  c #184472",
". c #1A4777",
"X c #1A4875",
"o c #1A4876",
"O c #3E7EC0",
"+ c #3F7FC1",
"@ c #3E7EC2",
"# c #4A90D9",
"$ c None",
/* pixels */
"$oo$",
"o@+.",
" ## ",
"o+O.",
"$X.$"
};
