/* XPM */
static char *radio_unchecked_active_png[] = {
/* columns rows colors chars-per-pixel */
"16 16 51 1 ",
"  c gray60",
". c #9A9A9A",
"X c #9B9B9B",
"o c #9A9C9A",
"O c #9B9C9B",
"+ c gray61",
"@ c #9C9D9C",
"# c #9D9D9D",
"$ c #9D9E9D",
"% c #9E9E9D",
"& c gray62",
"* c #9E9F9E",
"= c #A1A1A0",
"- c #A1A2A0",
"; c #A6A7A5",
": c #A7A8A6",
"> c #AAACA7",
", c #A8A9A8",
"< c #A9A9A8",
"1 c #ACAEA9",
"2 c #B0B2AC",
"3 c #B0B3AC",
"4 c #B1B4AE",
"5 c #B5B7B3",
"6 c #B6B8B4",
"7 c #B8BBB4",
"8 c #BDC0BA",
"9 c #C0C3BC",
"0 c #C0C3BD",
"q c #C2C5BE",
"w c #C3C6BF",
"e c #C2C4C0",
"r c #C3C5C1",
"t c #C4C5C3",
"y c #C5C9C1",
"u c #C7CAC3",
"i c #C8CCC4",
"p c #CBCDCA",
"a c #CCCFC8",
"s c #CFD3CB",
"d c #CFD3CC",
"f c #D0D4CC",
"g c #D2D6CE",
"h c #D5D9D2",
"j c #D9DCD6",
"k c #DCE0D9",
"l c #DFE0DD",
"z c #E0E3DD",
"x c #E3E6E1",
"c c #E5E7E3",
"v c None",
/* pixels */
"vvvvvX...Xvvvvvv",
"vvvX%>342>%ovvvv",
"vvX>780q087>Xvvv",
"v+19yyyyyyy91+vv",
"v=wiiiiiiiiiw-vv",
"#6aaaaaaaaaaa5+v",
"+usssssssssssuOv",
" fgggggggggggf.v",
"+dhhhhhhhhhhhd+v",
"&rjjjjjjjjjjjr$v",
"v:kkkkkkkkkkk;vv",
"v#ezzzzzzzzzr+vv",
"vv+txxxxxxxt@vvv",
"vvv#,plclp<#vvvv",
"vvvvv*+.+*vvvvvv",
"vvvvvvvvvvvvvvvv"
};
