/* XPM */
static char *radio_checked_active_png[] = {
/* columns rows colors chars-per-pixel */
"16 16 73 1 ",
"  c #2E3436",
". c #2F3537",
"X c #44494A",
"o c #474C4D",
"O c #4B5052",
"+ c #4C5252",
"@ c #515657",
"# c #555B5B",
"$ c #565B5C",
"% c gray60",
"& c #9A9A9A",
"* c #9B9B9B",
"= c #9A9C9A",
"- c #9B9C9B",
"; c gray61",
": c #9C9D9C",
"> c #9D9D9D",
", c #9D9E9D",
"< c #9E9E9D",
"1 c gray62",
"2 c #9E9F9E",
"3 c #A1A1A0",
"4 c #A1A2A0",
"5 c #A6A7A5",
"6 c #A7A8A6",
"7 c #AAACA7",
"8 c #A8A9A8",
"9 c #A9A9A8",
"0 c #ABAEA9",
"q c #ACAEA9",
"w c #AEB3AD",
"e c #B0B2AC",
"r c #B0B3AC",
"t c #B1B4AE",
"y c #B5B7B3",
"u c #B6B8B4",
"i c #B8BBB4",
"p c #BDC0BA",
"a c #C0C3BC",
"s c #C0C3BD",
"d c #C0C5BD",
"f c #C2C5BE",
"g c #C3C6BF",
"h c #C2C4C0",
"j c #C3C5C1",
"k c #C4C5C3",
"l c #C5C9C1",
"z c #C7CAC3",
"x c #C7CBC4",
"c c #C8CCC4",
"v c #CBCDCA",
"b c #CCCFC8",
"n c #CED2CA",
"m c #CFD3CB",
"M c #CFD3CC",
"N c #CFD1CF",
"B c #D0D4CC",
"V c #D2D6CE",
"C c #D5D9D2",
"Z c #D6DAD3",
"A c #D7DBD4",
"S c #D9DCD6",
"D c #DCE0D9",
"F c #DFE0DD",
"G c #E0E3DD",
"H c #E0E4DD",
"J c #E1E4DE",
"K c #E3E6E1",
"L c #E5E7E3",
"P c #EFF0EE",
"I c #F0F1EE",
"U c #F0F2EF",
"Y c None",
/* pixels */
"YYYYY*&&&*YYYYYY",
"YYY*<7rte7<=YYYY",
"YY*7ipsfspi7*YYY",
"Y;qalllllllaq;YY",
"Y3gccccdccccg4YY",
">ubbb0X owbbby;Y",
";zmmmX   +mmmz-Y",
"%BVVx    .nVVB&Y",
";MCCAO   #ZCCM;Y",
"1jSSSv@ $NSSSj,Y",
"Y6DDDJUPIHDDD5YY",
"Y>hGGGGJGGGGj;YY",
"YY;kKKKKKKKk:YYY",
"YYY>8vFLFv9>YYYY",
"YYYYY2;&;2YYYYYY",
"YYYYYYYYYYYYYYYY"
};
