/* XPM */
static char *radio_mixed_insensitive_png[] = {
/* columns rows colors chars-per-pixel */
"16 16 28 1 ",
"  c #8D9091",
". c #909394",
"X c #919495",
"o c #929596",
"O c #949697",
"+ c #959899",
"@ c #9A9A9A",
"# c #9D9D9D",
"$ c gray62",
"% c #9F9F9F",
"& c #A0A0A0",
"* c #AAAAAA",
"= c gray67",
"- c #ACACAC",
"; c #BEC0C0",
": c #C0C2C2",
"> c #C1C2C3",
", c #CECECE",
"< c gray81",
"1 c gray83",
"2 c #D5D5D5",
"3 c gray84",
"4 c #EAEAEA",
"5 c gray92",
"6 c #F1F1F1",
"7 c gray95",
"8 c #F4F4F4",
"9 c None",
/* pixels */
"99999%#@#%999999",
"999$=24642=$9999",
"99#<8888888<#999",
"9$<888888888<$99",
"9-88888888888=99",
"%3888888888882%9",
"#58>+OOOOO+:85#9",
"@78o       X87@9",
"#58;.     .;85#9",
"%2888888888882&9",
"9=88888888888*99",
"9$,888888888,#99",
"99#,8888888,#999",
"999%=14641=%9999",
"99999%#@#%999999",
"9999999999999999"
};
