/* XPM */
static char *radio_checked_png[] = {
/* columns rows colors chars-per-pixel */
"16 16 61 1 ",
"  c #2E3436",
". c #2F3537",
"X c #474C4E",
"o c #494E50",
"O c #4C5153",
"+ c #4D5254",
"@ c #515657",
"# c #535859",
"$ c #585D5E",
"% c gray60",
"& c #9A9A9A",
"* c #9B9B9B",
"= c gray61",
"- c #9D9D9D",
"; c gray62",
": c #9F9F9F",
"> c #A0A0A0",
", c gray68",
"< c #AEAEAE",
"1 c #AFAFAF",
"2 c #C0C0C0",
"3 c #C1C1C1",
"4 c gray76",
"5 c #C3C3C3",
"6 c gray77",
"7 c #C5C5C5",
"8 c #C6C7C7",
"9 c gray78",
"0 c #CBCDCD",
"q c LightGray",
"w c #D4D5D5",
"e c #D5D5D5",
"r c #D8D9D9",
"t c gainsboro",
"y c #DCDCDD",
"u c #DDDDDD",
"i c gray87",
"p c #E1E1E1",
"a c gray89",
"s c #E4E4E4",
"d c gray90",
"f c #E6E6E6",
"g c #E7E7E7",
"h c gray91",
"j c #E9EAEA",
"k c #EAEAEA",
"l c gray92",
"z c #ECECEC",
"x c gray93",
"c c #EFEFEF",
"v c gray94",
"b c #F3F3F3",
"n c gray97",
"m c #F8F8F8",
"M c #F9F9F9",
"N c gray98",
"B c #FBFBFB",
"V c gray99",
"C c #FEFEFE",
"Z c white",
"A c None",
/* pixels */
"AAAAA>-&->AAAAAA",
"AAA;4bCZCb4;AAAA",
"AA:xCVBNBVCx:AAA",
"A;zNnnnnnnnNz;AA",
"A3mbbbbjbbbbm2AA",
":dccc8o O0cccs:A",
"-lzzzX   @zzzl-A",
"%lhhy    .shhk&A",
"-sddg+   $fdds=A",
";qhppw# $rpphq;A",
"A1gfisMMmaiff<AA",
"A-6fxautuaxf7=AA",
"AA-5ehvbvhe5-AAA",
"AAA=,79996,=AAAA",
"AAAAA-*&*-AAAAAA",
"AAAAAAAAAAAAAAAA"
};
