/* XPM */
static char *radio_mixed_png[] = {
/* columns rows colors chars-per-pixel */
"16 16 54 1 ",
"  c #2E3436",
". c #33393B",
"X c #373D3E",
"o c #383D3F",
"O c #3B4142",
"+ c #3D4345",
"@ c #8A8D8E",
"# c #8C8F90",
"$ c #8D9091",
"% c gray60",
"& c #9A9A9A",
"* c #9B9B9B",
"= c gray61",
"- c #9D9D9D",
"; c gray62",
": c #9F9F9F",
"> c #A0A0A0",
", c gray68",
"< c #AEAEAE",
"1 c #AFAFAF",
"2 c #C0C0C0",
"3 c #C1C1C1",
"4 c gray76",
"5 c #C3C3C3",
"6 c gray77",
"7 c #C5C5C5",
"8 c gray78",
"9 c LightGray",
"0 c #D5D5D5",
"q c gray86",
"w c #DDDDDD",
"e c gray87",
"r c gray89",
"t c #E4E4E4",
"y c gray90",
"u c #E6E6E6",
"i c #E7E7E7",
"p c gray91",
"a c #E9E9E9",
"s c #EAEAEA",
"d c gray92",
"f c #ECECEC",
"g c gray93",
"h c #EFEFEF",
"j c gray94",
"k c #F3F3F3",
"l c gray97",
"z c #F8F8F8",
"x c gray98",
"c c #FBFBFB",
"v c gray99",
"b c #FEFEFE",
"n c white",
"m c None",
/* pixels */
"mmmmm>-&->mmmmmm",
"mmm;4kbnbk4;mmmm",
"mm:gbvcxcvbg:mmm",
"m;fxlllllllxf;mm",
"m3zkkkkkkkkkz2mm",
":yhhhhhhhhhhht:m",
"-df$+OOOOO+#fd-m",
"%dpo       Xps&m",
"-ty@.     .@yt=m",
";9pajjjjjjjap9;m",
"m1iueeeeeeeuu<mm",
"m-6ugrwqwrgu7=mm",
"mm-50pjkjp05-mmm",
"mmm=,78886,=mmmm",
"mmmmm-*&*-mmmmmm",
"mmmmmmmmmmmmmmmm"
};
