/* XPM */
static char *radio_unchecked_insensitive_png[] = {
/* columns rows colors chars-per-pixel */
"16 16 19 1 ",
"  c #9A9A9A",
". c #9D9D9D",
"X c gray62",
"o c #9F9F9F",
"O c #A0A0A0",
"+ c #AAAAAA",
"@ c gray67",
"# c #ACACAC",
"$ c #CECECE",
"% c gray81",
"& c gray83",
"* c #D5D5D5",
"= c gray84",
"- c #EAEAEA",
"; c gray92",
": c #F1F1F1",
"> c gray95",
", c #F4F4F4",
"< c None",
/* pixels */
"<<<<<o. .o<<<<<<",
"<<<X@*-:-*@X<<<<",
"<<.%,,,,,,,%.<<<",
"<X%,,,,,,,,,%X<<",
"<#,,,,,,,,,,,@<<",
"o=,,,,,,,,,,,*o<",
".;,,,,,,,,,,,;.<",
" >,,,,,,,,,,,> <",
".;,,,,,,,,,,,;.<",
"o*,,,,,,,,,,,*O<",
"<@,,,,,,,,,,,+<<",
"<X$,,,,,,,,,$.<<",
"<<.$,,,,,,,$.<<<",
"<<<o@&-:-&@o<<<<",
"<<<<<o. .o<<<<<<",
"<<<<<<<<<<<<<<<<"
};
