/* XPM */
static char *radio_mixed_active_png[] = {
/* columns rows colors chars-per-pixel */
"16 16 63 1 ",
"  c #2E3436",
". c #33393A",
"X c #363D3D",
"o c #373C3E",
"O c #393F40",
"+ c #3A4142",
"@ c #7D827F",
"# c #7E8380",
"$ c #878B8A",
"% c gray60",
"& c #9A9A9A",
"* c #9B9B9B",
"= c #9A9C9A",
"- c #9B9C9B",
"; c gray61",
": c #9C9D9C",
"> c #9D9D9D",
", c #9D9E9D",
"< c #9E9E9D",
"1 c gray62",
"2 c #9E9F9E",
"3 c #A1A1A0",
"4 c #A1A2A0",
"5 c #A6A7A5",
"6 c #A7A8A6",
"7 c #AAACA7",
"8 c #A8A9A8",
"9 c #A9A9A8",
"0 c #ACAEA9",
"q c #B0B2AC",
"w c #B0B3AC",
"e c #B1B4AE",
"r c #B5B7B3",
"t c #B6B8B4",
"y c #B8BBB4",
"u c #BDC0BA",
"i c #C0C3BC",
"p c #C0C3BD",
"a c #C2C5BE",
"s c #C3C6BF",
"d c #C2C4C0",
"f c #C3C5C1",
"g c #C4C5C3",
"h c #C5C9C1",
"j c #C7CAC3",
"k c #C8CCC4",
"l c #CBCDCA",
"z c #CCCFC8",
"x c #CFD3CB",
"c c #CFD3CC",
"v c #D0D4CC",
"b c #D2D6CE",
"n c #D5D9D2",
"m c #D9DCD6",
"M c #DCE0D9",
"N c #DFE0DD",
"B c #E0E3DD",
"V c #E3E5E1",
"C c #E3E6E1",
"Z c #E5E7E3",
"A c #ECEDEA",
"S c #ECEEEB",
"D c None",
/* pixels */
"DDDDD*&&&*DDDDDD",
"DDD*<7weq7<=DDDD",
"DD*7yupapuy7*DDD",
"D;0ihhhhhhhi0;DD",
"D3skkkkkkkkks4DD",
">tzzzzzzzzzzzr;D",
";jx#+OOOOO+@xj-D",
"%vbo       Xbv&D",
";cn$.     .$nc;D",
"1fmVASSSSSAVmf,D",
"D6MMMMMMMMMMM5DD",
"D>dBBBBBBBBBf;DD",
"DD;gCCCCCCCg:DDD",
"DDD>8lNZNl9>DDDD",
"DDDDD2;&;2DDDDDD",
"DDDDDDDDDDDDDDDD"
};
