/* XPM */
static char *radio_checked_insensitive_png[] = {
/* columns rows colors chars-per-pixel */
"16 16 32 1 ",
"  c #8D9091",
". c #9A9A9A",
"X c #9B9D9E",
"o c #9D9D9D",
"O c #9C9F9F",
"+ c gray62",
"@ c #9F9F9F",
"# c #9D9FA0",
"$ c #9FA2A2",
"% c #A0A0A0",
"& c #A0A2A3",
"* c #A2A4A5",
"= c #AAAAAA",
"- c gray67",
"; c #ACACAC",
": c #CECECE",
"> c gray81",
", c gray83",
"< c #D5D5D5",
"1 c gray84",
"2 c #DEDEDF",
"3 c #E0E1E1",
"4 c #E1E2E2",
"5 c #E3E4E4",
"6 c #EAEAEA",
"7 c gray92",
"8 c #EDEEEE",
"9 c #EFEFEF",
"0 c #F1F1F1",
"q c gray95",
"w c #F4F4F4",
"e c None",
/* pixels */
"eeeee@o.o@eeeeee",
"eee+-<606<-+eeee",
"eeo>wwwwwww>oeee",
"e+>wwwwwwwww>+ee",
"e;wwwww9wwwww-ee",
"@1www2X #4www<@e",
"o7wwwX   &www7oe",
".qww8     0wwq.e",
"o7wwwO   *www7oe",
"@<www3$ *5www<%e",
"e-wwwww0wwwww=ee",
"e+:wwwwwwwww:oee",
"eeo:wwwwwww:oeee",
"eee@-,606,-@eeee",
"eeeee@o.o@eeeeee",
"eeeeeeeeeeeeeeee"
};
