/* XPM */
static char *radio_checked_hover_png[] = {
/* columns rows colors chars-per-pixel */
"16 16 54 1 ",
"  c #2E3436",
". c #2F3537",
"X c #494E50",
"o c #4B5052",
"O c #4D5254",
"+ c #4F5456",
"@ c #535859",
"# c #54595A",
"$ c #585D5E",
"% c #9A9A9A",
"& c gray61",
"* c #9D9D9D",
"= c gray62",
"- c #9F9F9F",
"; c #A0A0A0",
": c gray63",
"> c #B7B7B7",
", c #B9B9B9",
"< c gray76",
"1 c #C3C3C3",
"2 c #D1D2D2",
"3 c #D6D7D7",
"4 c #D6D8D8",
"5 c #D8D8D8",
"6 c #DADADA",
"7 c #DBDBDA",
"8 c gray86",
"9 c #DCDDDD",
"0 c gray88",
"q c #E1E1E1",
"w c gray90",
"e c #EAEAEA",
"r c gray92",
"t c gray93",
"y c #EEEEEE",
"u c #EEEEEF",
"i c #F2F3F3",
"p c #F3F3F3",
"a c gray96",
"s c #F6F6F5",
"d c #F6F6F6",
"f c #F7F7F6",
"g c gray97",
"h c #F8F8F8",
"j c #F9F9F8",
"k c #F9F9F9",
"l c gray98",
"z c #FBFBFB",
"x c gray99",
"c c #FDFDFC",
"v c #FDFDFD",
"b c #FEFEFE",
"n c white",
"m c None",
/* pixels */
"mmmmm;*%*;mmmmmm",
"mmm=<pbnbp<=mmmm",
"mm-ynbbbbbny-mmm",
"m=ybbbbbbbbbt-mm",
"m1bvvvvivvvvb<mm",
":evvv2o +4vvve;m",
"=dxxxX   #xxxd*m",
"%lxxu    .gxxl%m",
"=azzzO   $zzza*m",
"-wxll3@ $9llxw;m",
"m,hzhkbkbkhzh>mm",
"m=6hcjfsfjvh6*mm",
"mm=5rkbnbkr5=mmm",
"mmm->8q0q7>-mmmm",
"mmmmm-&%&-mmmmmm",
"mmmmmmmmmmmmmmmm"
};
