/* XPM */
static char *radio_mixed_hover_png[] = {
/* columns rows colors chars-per-pixel */
"16 16 47 1 ",
"  c #2E3436",
". c #33393B",
"X c #383E3F",
"o c #393E40",
"O c #3C4243",
"+ c #3E4446",
"@ c #919495",
"# c #949798",
"$ c #959899",
"% c #9A9A9A",
"& c gray61",
"* c #9D9D9D",
"= c gray62",
"- c #9F9F9F",
"; c #A0A0A0",
": c gray63",
"> c #B7B7B7",
", c #B9B9B9",
"< c gray76",
"1 c #C3C3C3",
"2 c #D8D8D8",
"3 c #DADADA",
"4 c #DBDBDA",
"5 c gray86",
"6 c gray88",
"7 c #E1E1E1",
"8 c gray90",
"9 c #EAEAEA",
"0 c gray92",
"q c gray93",
"w c #EEEEEE",
"e c #F3F3F3",
"r c gray96",
"t c #F6F6F5",
"y c #F6F6F6",
"u c #F7F7F6",
"i c #F8F8F8",
"p c #F9F9F8",
"a c #F9F9F9",
"s c gray98",
"d c #FBFBFB",
"f c gray99",
"g c #FDFDFC",
"h c #FDFDFD",
"j c #FEFEFE",
"k c white",
"l c None",
/* pixels */
"lllll;*%*;llllll",
"lll=<ejkje<=llll",
"ll-wkjjjjjkw-lll",
"l=wjjjjjjjjjq-ll",
"l1jhhhhhhhhhj<ll",
":9hhhhhhhhhhh9;l",
"=yf$+OOOOO+#fy*l",
"%sfo       Xfs%l",
"=rd@.     .@dr*l",
"-8fhkkkkkkkhf8;l",
"l,idiiiiiiidi>ll",
"l=3igputuphi3*ll",
"ll=20ajkja02=lll",
"lll->57674>-llll",
"lllll-&%&-llllll",
"llllllllllllllll"
};
