/* XPM */
static char *radio_unchecked_png[] = {
/* columns rows colors chars-per-pixel */
"16 16 45 1 ",
"  c gray60",
". c #9A9A9A",
"X c #9B9B9B",
"o c gray61",
"O c #9D9D9D",
"+ c gray62",
"@ c #9F9F9F",
"# c #A0A0A0",
"$ c gray68",
"% c #AEAEAE",
"& c #AFAFAF",
"* c #C0C0C0",
"= c #C1C1C1",
"- c gray76",
"; c #C3C3C3",
": c gray77",
"> c #C5C5C5",
", c gray78",
"< c LightGray",
"1 c #D5D5D5",
"2 c gray86",
"3 c #DDDDDD",
"4 c gray87",
"5 c #E1E1E1",
"6 c gray89",
"7 c #E4E4E4",
"8 c gray90",
"9 c #E6E6E6",
"0 c #E7E7E7",
"q c gray91",
"w c #EAEAEA",
"e c gray92",
"r c #ECECEC",
"t c gray93",
"y c #EFEFEF",
"u c gray94",
"i c #F3F3F3",
"p c gray97",
"a c #F8F8F8",
"s c gray98",
"d c #FBFBFB",
"f c gray99",
"g c #FEFEFE",
"h c white",
"j c None",
/* pixels */
"jjjjj#O.O#jjjjjj",
"jjj+-ighgi-+jjjj",
"jj@tgfdsdfgt@jjj",
"j+rspppppppsr+jj",
"j=aiiiiiiiiia*jj",
"@8yyyyyyyyyyy7@j",
"OerrrrrrrrrrreOj",
" eqqqqqqqqqqqw.j",
"O7888888888887oj",
"+<q555555555q<+j",
"j&09444444499%jj",
"jO:9t63236t9>ojj",
"jjO;1quiuq1;Ojjj",
"jjjo$>,,,:$ojjjj",
"jjjjjOX.XOjjjjjj",
"jjjjjjjjjjjjjjjj"
};
