/* XPM */
static char *radio_unchecked_hover_png[] = {
/* columns rows colors chars-per-pixel */
"16 16 38 1 ",
"  c #9A9A9A",
". c gray61",
"X c #9D9D9D",
"o c gray62",
"O c #9F9F9F",
"+ c #A0A0A0",
"@ c gray63",
"# c #B7B7B7",
"$ c #B9B9B9",
"% c gray76",
"& c #C3C3C3",
"* c #D8D8D8",
"= c #DADADA",
"- c #DBDBDA",
"; c gray86",
": c gray88",
"> c #E1E1E1",
", c gray90",
"< c #EAEAEA",
"1 c gray92",
"2 c gray93",
"3 c #EEEEEE",
"4 c #F3F3F3",
"5 c gray96",
"6 c #F6F6F5",
"7 c #F6F6F6",
"8 c #F7F7F6",
"9 c #F8F8F8",
"0 c #F9F9F8",
"q c #F9F9F9",
"w c gray98",
"e c #FBFBFB",
"r c gray99",
"t c #FDFDFC",
"y c #FDFDFD",
"u c #FEFEFE",
"i c white",
"p c None",
/* pixels */
"ppppp+X X+pppppp",
"pppo%4uiu4%opppp",
"ppO3iuuuuui3Oppp",
"po3uuuuuuuuu2Opp",
"p&uyyyyyyyyyu%pp",
"@<yyyyyyyyyyy<+p",
"o7rrrrrrrrrrr7Xp",
" wrrrrrrrrrrrw p",
"o5eeeeeeeeeee5Xp",
"O,rwwwwwwwwwr,+p",
"p$9e9999999e9#pp",
"po=9t08680y9=Xpp",
"ppo*1quiuq1*oppp",
"pppO#;>:>-#Opppp",
"pppppO. .Opppppp",
"pppppppppppppppp"
};
