/* XPM */
static char *scale_slider_hover_png[] = {
/* columns rows colors chars-per-pixel */
"26 26 77 1 ",
"  c #9F9F9B",
". c #9F9F9C",
"X c #A1A19B",
"o c #A0A09D",
"O c #A1A19D",
"+ c #A2A29D",
"@ c #A1A19E",
"# c #A2A29E",
"$ c #A2A29F",
"% c #A3A39F",
"& c #A4A49F",
"* c #A3A3A0",
"= c #A4A4A0",
"- c #A4A4A1",
"; c #A5A5A1",
": c #A8A8A4",
"> c #A9A9A5",
", c #A9A9A6",
"< c #AAAAA7",
"1 c #ABABA8",
"2 c #ACACA9",
"3 c #ADADAA",
"4 c #ADADAB",
"5 c #AEAEAA",
"6 c #AFAFAB",
"7 c #B3B3AF",
"8 c #B4B4B0",
"9 c #B4B4B1",
"0 c #B7B7B3",
"q c #B7B7B4",
"w c #C4C4C2",
"e c #C5C5C2",
"r c #C8C8C5",
"t c #C8C8C6",
"y c #CECECC",
"u c #CFCFCD",
"i c #D0D0CF",
"p c #D1D1CF",
"a c #D3D3D2",
"s c #D4D4D2",
"d c #D6D6D3",
"f c #D6D6D4",
"g c #D7D7D5",
"h c #D7D7D6",
"j c #DADAD8",
"k c #DADAD9",
"l c #DBDBDA",
"z c #DCDCDB",
"x c #DFDFDE",
"c c #E0E0DF",
"v c #E1E1E0",
"b c #E2E2E1",
"n c #E3E3E1",
"m c #E3E3E2",
"M c #E4E4E3",
"N c #E5E5E3",
"B c #E4E4E4",
"V c #E5E5E4",
"C c #E6E6E5",
"Z c #E7E7E6",
"A c #E9E9E8",
"S c #EBEBEA",
"D c #EEEEED",
"F c #EFEFEF",
"G c gray94",
"H c #F1F1F1",
"J c #F2F2F1",
"K c gray95",
"L c #F3F3F3",
"P c gray96",
"I c #F6F6F6",
"U c gray97",
"Y c #F8F8F8",
"T c gray98",
"R c #FBFBFB",
"E c #FDFDFD",
"W c None",
/* pixels */
"WWWWWWWWWWWWWWWWWWWWWWWWWW",
"WWWWWWWWWWWWWWWWWWWWWWWWWW",
"WWWWWWWWWWWWWWWWWWWWWWWWWW",
"WWWWWWWWWW#$  $*WWWWWWWWWW",
"WWWWWWWW@9hFRRFg9#WWWWWWWW",
"WWWWWW#,ZETYUUYTEZ>$WWWWWW",
"WWWWW+8UUPPPPPPPPUU7%WWWWW",
"WWWWW<ILKKKKKKKKKKLP>WWWWW",
"WWWW=CHGGGGGGGGGGGGHC&WWWW",
"WWWW0JDDDDDDDDDDDDDDJqWWWW",
"WWW4fSSSSSSSSSSSSSSSSd6WWW",
"WWW:BAAAAAAAAAAAAAAAAN,WWW",
"WWW#ZZZZZZZZZZZZZZZZZZ#WWW",
"WWW#mCCCCCCCCCCCCCCCCn$WWW",
"WWW+kVVVVVVVVVVVVVVVVj@WWW",
"WWW@tMMMMMMMMMMMMMMMMr+WWW",
"WWWW5mmmmmmmmmmmmmmmm3WWWW",
"WWWW.ibbbbbbbbbbbbbbp.WWWW",
"WWWWW;zvvvvvvvvvvvvz-WWWWW",
"WWWWWo1lccccccccccl<oWWWWW",
"WWWWWWo;uxxxxxxxxy=XWWWWWW",
"WWWWWWWW.2esllaw1oWWWWWWWW",
"WWWWWWWWWWOo  o+WWWWWWWWWW",
"WWWWWWWWWWWWWWWWWWWWWWWWWW",
"WWWWWWWWWWWWWWWWWWWWWWWWWW",
"WWWWWWWWWWWWWWWWWWWWWWWWWW"
};
