/* XPM */
static char *scale_slider_png[] = {
/* columns rows colors chars-per-pixel */
"26 26 79 1 ",
"  c #9E9E9A",
". c #9F9F9A",
"X c #9F9F9C",
"o c #A0A09C",
"O c #A1A19C",
"+ c #A0A09D",
"@ c #A1A19D",
"# c #A2A29D",
"$ c #A2A29E",
"% c #A3A39E",
"& c #A2A29F",
"* c #A3A39F",
"= c #A4A49F",
"- c #A4A4A0",
"; c #A7A7A4",
": c #A8A8A3",
"> c #A8A8A4",
", c #A8A8A5",
"< c #A9A9A5",
"1 c #A9A9A6",
"2 c #AAAAA6",
"3 c #ABABA6",
"4 c #ADADAB",
"5 c #AFAFAB",
"6 c #B1B1AE",
"7 c #B2B2AF",
"8 c #B3B3AF",
"9 c #B6B6B3",
"0 c #B7B7B4",
"q c #BBBBB9",
"w c #BCBCB9",
"e c #C1C1BE",
"r c #C1C1BF",
"t c #C3C3C0",
"y c #C3C3C1",
"u c #C7C7C4",
"i c #C7C7C5",
"p c #C8C8C5",
"a c #CCCCCA",
"s c #CDCDCB",
"d c #CECECC",
"f c #CFCFCE",
"g c #D0D0CE",
"h c #D1D1CE",
"j c #D1D1CF",
"k c #D2D2D0",
"l c #D3D3D2",
"z c #D4D4D2",
"x c #D4D4D3",
"c c #D5D5D3",
"v c #D6D6D5",
"b c #D8D8D7",
"n c #DADAD8",
"m c #DADAD9",
"M c #DBDBDA",
"N c #DDDDDC",
"B c #DEDEDD",
"V c #DFDFDE",
"C c #DFDFDF",
"Z c #E0E0DE",
"A c #E0E0DF",
"S c #E2E2E1",
"D c #E3E3E2",
"F c #E5E5E3",
"G c #E5E5E4",
"H c #E6E6E5",
"J c #E7E7E6",
"K c #E9E9E8",
"L c gray92",
"P c #EDEDEC",
"I c gray93",
"U c #F1F1F0",
"Y c #F2F2F1",
"T c gray95",
"R c #F4F4F4",
"E c gray96",
"W c #F9F9F8",
"Q c gray98",
"! c None",
/* pixels */
"!!!!!!!!!!!!!!!!!!!!!!!!!!",
"!!!!!!!!!!!!!!!!!!!!!!!!!!",
"!!!!!!!!!!!!!!!!!!!!!!!!!!",
"!!!!!!!!!!$&  &&!!!!!!!!!!",
"!!!!!!!!+7xIQQIz7@!!!!!!!!",
"!!!!!!$,HWULKKLUWH:#!!!!!!",
"!!!!!#8EPJJJJJJJJPR6*!!!!!",
"!!!!!1TJGGGGGGGGGGJY<!!!!!",
"!!!!-FGDDDDDDDDDDDDGG=!!!!",
"!!!!9KSSSSSSSSSSSSSSK0!!!!",
"!!!4zAAAAAAAAAAAAAAAAz5!!!",
"!!!>CVVVVVVVVVVVVVVVVZ<!!!",
"!!!$BNNNNNNNNNNNNNNNNB$!!!",
"!!!$mMMMMMMMMMMMMMMMMn&!!!",
"!!!Ojnnnnnnnnnnnnnnnnh+!!!",
"!!!+rbbbbbbbbbbbbbbbbe+!!!",
"!!!!3vvvvvvvvvvvvvvvv2!!!!",
"!!!!XucccccccccccccciX!!!!",
"!!!!!*fllllllllllllf&!!!!!",
"!!!!!+,dkkkkkkkkkkd;+!!!!!",
"!!!!!!+*yggggggggt%.!!!!!!",
"!!!!!!!!X<wpsaiq>X!!!!!!!!",
"!!!!!!!!!!@X  Xo!!!!!!!!!!",
"!!!!!!!!!!!!!!!!!!!!!!!!!!",
"!!!!!!!!!!!!!!!!!!!!!!!!!!",
"!!!!!!!!!!!!!!!!!!!!!!!!!!"
};
