/* XPM */
static char *scale_slider_active_png[] = {
/* columns rows colors chars-per-pixel */
"26 26 105 2 ",
"   c #1D4875",
".  c #214B77",
"X  c #214C77",
"o  c #224C77",
"O  c #214C78",
"+  c #224C78",
"@  c #234D78",
"#  c #234C79",
"$  c #224D79",
"%  c #234D79",
"&  c #224E79",
"*  c #234E79",
"=  c #244D78",
"-  c #254D78",
";  c #244E79",
":  c #254E79",
">  c #244F79",
",  c #264F79",
"<  c #254E7A",
"1  c #244F7A",
"2  c #254F7A",
"3  c #26507B",
"4  c #28507B",
"5  c #28517B",
"6  c #2B537C",
"7  c #2D547D",
"8  c #2E557D",
"9  c #2E567E",
"0  c #335A82",
"q  c #335A83",
"w  c #345B84",
"e  c #355C84",
"r  c #385E86",
"t  c #416489",
"y  c #43658A",
"u  c #42668B",
"i  c #43668B",
"p  c #44668A",
"a  c #46678A",
"s  c #47688C",
"d  c #48698C",
"f  c #4D6E92",
"g  c #4E6F92",
"h  c #507194",
"j  c #517294",
"k  c #567697",
"l  c #577797",
"z  c #90A1B2",
"x  c #90A2B3",
"c  c #93A4B6",
"v  c #94A5B7",
"b  c #A1B3C4",
"n  c #A3B4C5",
"m  c #A3B4C6",
"M  c #A4B5C7",
"N  c #ADB8C3",
"B  c #AEB9C5",
"V  c #AFBAC4",
"C  c #B0BBC5",
"Z  c #BEC5CB",
"A  c #BFC6CC",
"S  c #C5CCD2",
"D  c #C7CDD3",
"F  c #C6D0DB",
"G  c #C7D1DC",
"H  c #C8D2DC",
"J  c #C9D3DD",
"K  c #D2D5D7",
"L  c #D3D6D8",
"P  c #D5D7D8",
"I  c #D4D7D9",
"U  c #D1D7DD",
"Y  c #D1D7DE",
"T  c #DBDEDF",
"R  c #DFDFDE",
"E  c #E0E0DF",
"W  c #DDDFE0",
"Q  c #DCE2E9",
"!  c #E1E1E0",
"~  c #E2E2E1",
"^  c #E3E3E2",
"/  c #E4E4E3",
"(  c #E1E3E4",
")  c #E5E5E4",
"_  c #E6E6E5",
"`  c #E7E7E6",
"'  c #E9E9E8",
"]  c #EBEBEA",
"[  c #EEEEED",
"{  c #EDF0F3",
"}  c #EEF0F3",
"|  c #EFF1F4",
" . c #EFF2F5",
".. c gray94",
"X. c #F1F1F1",
"o. c #F2F2F1",
"O. c gray95",
"+. c #F3F3F3",
"@. c gray96",
"#. c gray97",
"$. c #F5F7F9",
"%. c #F8F8F8",
"&. c gray98",
"*. c #FDFDFD",
"=. c None",
/* pixels */
"=.=.=.=.=.=.=.=.=.=.=.=.=.=.=.=.=.=.=.=.=.=.=.=.=.=.",
"=.=.=.=.=.=.=.=.=.=.=.=.=.=.=.=.=.=.=.=.=.=.=.=.=.=.",
"=.=.=.=.=.=.=.=.=.=.=.=.=.=.=.=.=.=.=.=.=.=.=.=.=.=.",
"=.=.=.=.=.=.=.=.=.=.3 2     2 4 =.=.=.=.=.=.=.=.=.=.",
"=.=.=.=.=.=.=.=.# j M Q $.$.Q m h @ =.=.=.=.=.=.=.=.",
"=.=.=.=.=.=.$ e J *.&.%.#.#.%.&.*.G q & =.=.=.=.=.=.",
"=.=.=.=.=.- g | #.@.@.@.@.@.@.@.@.#. .f 1 =.=.=.=.=.",
"=.=.=.=.=.r } +.O.O.O.O.O.O.O.O.O.O.+.{ e =.=.=.=.=.",
"=.=.=.=.6 H X.........................X.F 5 =.=.=.=.",
"=.=.=.=.l o.[ [ [ [ [ [ [ [ [ [ [ [ [ [ o.k =.=.=.=.",
"=.=.=.u n ] ] ] ] ] ] ] ] ] ] ] ] ] ] ] ] b i =.=.=.",
"=.=.=.0 Y ' ' ' ' ' ' ' ' ' ' ' ' ' ' ' ' U w =.=.=.",
"=.=.=.+ ( ` ` ` ` ` ` ` ` ` ` ` ` ` ` ` ` ( + =.=.=.",
"=.=.=.% W _ _ _ _ _ _ _ _ _ _ _ _ _ _ _ _ T < =.=.=.",
"=.=.=.* D ) ) ) ) ) ) ) ) ) ) ) ) ) ) ) ) S ; =.=.=.",
"=.=.=.: v / / / / / / / / / / / / / / / / c , =.=.=.",
"=.=.=.=.d ^ ^ ^ ^ ^ ^ ^ ^ ^ ^ ^ ^ ^ ^ ^ ^ s =.=.=.=.",
"=.=.=.=.o B ~ ~ ~ ~ ~ ~ ~ ~ ~ ~ ~ ~ ~ ~ C . =.=.=.=.",
"=.=.=.=.=.9 I ! ! ! ! ! ! ! ! ! ! ! ! L 8 =.=.=.=.=.",
"=.=.=.=.=.X y L E E E E E E E E E E K t O =.=.=.=.=.",
"=.=.=.=.=.=.X 9 V R R R R R R R R N 7 . =.=.=.=.=.=.",
"=.=.=.=.=.=.=.=.. a x A P P Z z p o =.=.=.=.=.=.=.=.",
"=.=.=.=.=.=.=.=.=.=.: =     = > =.=.=.=.=.=.=.=.=.=.",
"=.=.=.=.=.=.=.=.=.=.=.=.=.=.=.=.=.=.=.=.=.=.=.=.=.=.",
"=.=.=.=.=.=.=.=.=.=.=.=.=.=.=.=.=.=.=.=.=.=.=.=.=.=.",
"=.=.=.=.=.=.=.=.=.=.=.=.=.=.=.=.=.=.=.=.=.=.=.=.=.=."
};
