/* XPM */
static char *scale_slider_insensitive_png[] = {
/* columns rows colors chars-per-pixel */
"26 26 34 1 ",
"  c #9F9F9B",
". c #9F9F9C",
"X c #A1A19B",
"o c #A0A09D",
"O c #A1A19D",
"+ c #A2A29D",
"@ c #A1A19E",
"# c #A2A29E",
"$ c #A3A39E",
"% c #A2A29F",
"& c #A3A39F",
"* c #A6A6A2",
"= c #A6A6A3",
"- c #A7A7A3",
"; c #ADADAA",
": c #AFAFAB",
"> c #B0B0AC",
", c #B0B0AD",
"< c #B1B1AE",
"1 c #D0D0CE",
"2 c #D0D0CF",
"3 c #D1D1CF",
"4 c #DCDCDB",
"5 c #DDDDDC",
"6 c gray89",
"7 c #E4E4E3",
"8 c #E4E4E4",
"9 c gray92",
"0 c #ECECEC",
"q c #EDEDEC",
"w c gray93",
"e c #EEEEEE",
"r c #F1F1F1",
"t c None",
/* pixels */
"tttttttttttttttttttttttttt",
"tttttttttttttttttttttttttt",
"tttttttttttttttttttttttttt",
"tttttttttt#%  %%tttttttttt",
"tttttttto<28ee81<Otttttttt",
"tttttt#=5rrrrrrrr5-%tttttt",
"ttttt+>0rrrrrrrrrr9:%ttttt",
"ttttt=0rrrrrrrrrrrr9-ttttt",
"tttto5rrrrrrrrrrrrrr5Otttt",
"tttt<rrrrrrrrrrrrrrrr<tttt",
"ttt%3rrrrrrrrrrrrrrrr1$ttt",
"ttt&8rrrrrrrrrrrrrrrr7%ttt",
"ttt wrrrrrrrrrrrrrrrrw ttt",
"ttt wrrrrrrrrrrrrrrrrq.ttt",
"ttt&8rrrrrrrrrrrrrrrr7&ttt",
"ttt@1rrrrrrrrrrrrrrrr1%ttt",
"tttt<rrrrrrrrrrrrrrrr,tttt",
"tttto4rrrrrrrrrrrrrr4otttt",
"ttttt-9rrrrrrrrrrrr9=ttttt",
"ttttt%:9rrrrrrrrrr9;ottttt",
"tttttt%-4rrrrrrrr4*Xtttttt",
"tttttttto<17ew62,@tttttttt",
"tttttttttt$@  @&tttttttttt",
"tttttttttttttttttttttttttt",
"tttttttttttttttttttttttttt",
"tttttttttttttttttttttttttt"
};
