/* XPM */
static char *scrollbar_horz_slider_hover_png[] = {
/* columns rows colors chars-per-pixel */
"13 13 6 1 ",
"  c #545759",
". c #535858",
"X c #535859",
"o c #535959",
"O c #545859",
"+ c None",
/* pixels */
"+++++++++++++",
"+++++++++++++",
"+++++++++++++",
"+++++++++++++",
"++++oXXX ++++",
"+++oXXXXX.+++",
"+++XXXXXXX+++",
"+++XXXXXXX+++",
"+++ XXXXXo+++",
"++++ OXO.++++",
"+++++++++++++",
"+++++++++++++",
"+++++++++++++"
};
