/* XPM */
static char *scrollbar_horz_slider_active_png[] = {
/* columns rows colors chars-per-pixel */
"13 13 7 1 ",
"  c #2B75C5",
". c #2A75C6",
"X c #2976C7",
"o c #2A76C6",
"O c #2B76C6",
"+ c #2B77C6",
"@ c None",
/* pixels */
"@@@@@@@@@@@@@",
"@@@@@@@@@@@@@",
"@@@@@@@@@@@@@",
"@@@@@@@@@@@@@",
"@@@@Oooo @@@@",
"@@@OoooooX@@@",
"@@@ooooooo@@@",
"@@@oooooo+@@@",
"@@@ ooooo.@@@",
"@@@@ oooX@@@@",
"@@@@@@@@@@@@@",
"@@@@@@@@@@@@@",
"@@@@@@@@@@@@@"
};
