/* XPM */
static char *scrollbar_vert_slider_rtl_png[] = {
/* columns rows colors chars-per-pixel */
"13 13 5 1 ",
"  c #777D7D",
". c #787C7D",
"X c #797D7D",
"o c #787C7E",
"O c None",
/* pixels */
"OOOOOOOOOOOOO",
"OOOOOOOOOOOOO",
"OOOOOOOOOOOOO",
"OOOOo.. OOOOO",
"OOOo....oOOOO",
"OOO......OOOO",
"OOO......OOOO",
"OOO......OOOO",
"OOO ....XOOOO",
"OOOO ..oOOOOO",
"OOOOOOOOOOOOO",
"OOOOOOOOOOOOO",
"OOOOOOOOOOOOO"
};
