/* XPM */
static char *scrollbar_vert_slider_png[] = {
/* columns rows colors chars-per-pixel */
"13 13 5 1 ",
"  c #777D7D",
". c #787C7D",
"X c #797D7D",
"o c #787C7E",
"O c None",
/* pixels */
"OOOOOOOOOOOOO",
"OOOOOOOOOOOOO",
"OOOOOOOOOOOOO",
"OOOOOo.. OOOO",
"OOOOo....oOOO",
"OOOO......OOO",
"OOOO......OOO",
"OOOO......OOO",
"OOOO ....XOOO",
"OOOOO ..oOOOO",
"OOOOOOOOOOOOO",
"OOOOOOOOOOOOO",
"OOOOOOOOOOOOO"
};
