/* XPM */
static char *spin_ltr_down_insensitive_png[] = {
/* columns rows colors chars-per-pixel */
"7 16 11 1 ",
"  c #9D9D99",
". c #9E9E9A",
"X c #A5A5A1",
"o c #A5A5A2",
"O c #A6A6A2",
"+ c #D7D7D6",
"@ c #DADAD9",
"# c #EEEEEE",
"$ c #EFEFEF",
"% c #F1F1F1",
"& c None",
/* pixels */
"+++++ &",
"+%%%% &",
"+%%%% &",
"+%%%% &",
"+%%%% &",
"+%%%% &",
"+%%%% &",
"+%%%% &",
"+%%%% &",
"+%%%% &",
"+%%%% &",
"+%%%#.&",
"+%%%@X&",
"+%$@O&&",
"  .o&&&",
"&&&&&&&"
};
