/* XPM */
static char *spin_rtl_up_png[] = {
/* columns rows colors chars-per-pixel */
"7 16 18 1 ",
"  c #9D9D99",
". c #9E9E9A",
"X c #A2A29E",
"o c #A4A4A1",
"O c #A5A5A1",
"+ c #C8C8C5",
"@ c #CACAC8",
"# c #D7D7D6",
"$ c #DADAD8",
"% c #DADAD9",
"& c #DBDBD9",
"* c #DFDFDE",
"= c #E0E0DF",
"- c gray94",
"; c gray98",
": c gray99",
"> c #FDFDFD",
", c None",
/* pixels */
",,,,,,,",
",,,X   ",
",,o@$&+",
",O%---#",
",.;:::*",
", ::::*",
", ::::*",
", ::::*",
", >>>>=",
", >>>>=",
", >>>>=",
", >>>>=",
", >>>>=",
", >>>>=",
", >>>>=",
", >>>>="
};
