/* XPM */
static char *spin_rtl_up_active_png[] = {
/* columns rows colors chars-per-pixel */
"7 16 17 1 ",
"  c #9D9D99",
". c #9E9E9A",
"X c #A2A29E",
"o c #A5A5A1",
"O c #BBBBB8",
"+ c #C5C5C3",
"@ c #C6C6C4",
"# c #C8C8C5",
"$ c #C8C8C7",
"% c #D7D7D6",
"& c #D8D8D8",
"* c #DFDFDE",
"= c #E0E0DF",
"- c #E2E2E2",
"; c gray89",
": c #E4E4E4",
"> c None",
/* pixels */
">>>>>>>",
">>>X   ",
">>XO+@#",
">o$&&&%",
">.-;;;*",
"> ;;;;*",
"> ;;;;*",
"> ;;;;*",
"> ::::=",
"> ::::=",
"> ::::=",
"> ::::=",
"> ::::=",
"> ::::=",
"> ::::=",
"> ::::="
};
