/* XPM */
static char *spin_up_png[] = {
/* columns rows colors chars-per-pixel */
"9 6 3 1 ",
"  c #2E3436",
". c #2F3536",
"X c None",
/* pixels */
"XXXXXXXXX",
"XXXXXXXXX",
"XXX  .XXX",
"XX    .XX",
"X      .X",
"        ."
};
