/* XPM */
static char *spin_ltr_down_hover_png[] = {
/* columns rows colors chars-per-pixel */
"7 16 12 1 ",
"  c #9D9D99",
". c #9E9E9A",
"X c #A6A6A2",
"o c #A7A7A3",
"O c #DDDDDC",
"+ c #E0E0DF",
"@ c #E1E1E0",
"# c gray95",
"$ c #F3F3F3",
"% c #F4F4F4",
"& c gray96",
"* c None",
/* pixels */
"+++++ *",
"+%%%% *",
"+%%%% *",
"+%%%% *",
"+%%%% *",
"+%%%% *",
"+%%%% *",
"+%%%% *",
"+%%%% *",
"+%%%% *",
"@&&&& *",
"@&&&#.*",
"@&&&OX*",
"@&$Oo**",
"  .o***",
"*******"
};
