/* XPM */
static char *spin_rtl_down_png[] = {
/* columns rows colors chars-per-pixel */
"7 16 13 1 ",
"  c #9D9D99",
". c #9E9E9A",
"X c #A6A6A2",
"o c #A6A6A3",
"O c #A8A8A4",
"+ c #E0E0DF",
"@ c #E1E1E0",
"# c #E4E4E3",
"$ c #E5E5E4",
"% c #FDFDFD",
"& c #FEFEFE",
"* c white",
"= c None",
/* pixels */
"= +++++",
"= &&&&+",
"= &&&&+",
"= &&&&+",
"= &&&&+",
"= &&&&+",
"= &&&&+",
"= &&&&+",
"= &&&&+",
"= &&&&+",
"= ****@",
"=.%***@",
"=o$***@",
"==O#%*@",
"===X.  ",
"======="
};
