/* XPM */
static char *spin_ltr_down_png[] = {
/* columns rows colors chars-per-pixel */
"7 16 13 1 ",
"  c #9D9D99",
". c #9E9E9A",
"X c #A6A6A2",
"o c #A7A7A3",
"O c #A8A8A4",
"+ c #E0E0DF",
"@ c #E1E1E0",
"# c #E4E4E3",
"$ c gray99",
"% c #FDFDFD",
"& c #FEFEFE",
"* c white",
"= c None",
/* pixels */
"+++++ =",
"+&&&& =",
"+&&&& =",
"+&&&& =",
"+&&&& =",
"+&&&& =",
"+&&&& =",
"+&&&& =",
"+&&&& =",
"+&&&& =",
"@**** =",
"@***$.=",
"@***#X=",
"@*%#O==",
"  .o===",
"======="
};
