/* XPM */
static char *spin_rtl_down_active_png[] = {
/* columns rows colors chars-per-pixel */
"7 16 11 1 ",
"  c #9D9D99",
". c #9E9E9A",
"X c #A6A6A2",
"o c #A6A6A3",
"O c #D1D1D0",
"+ c #D2D2D1",
"@ c #E0E0DF",
"# c #E1E1E0",
"$ c #E4E4E4",
"% c gray90",
"& c None",
/* pixels */
"& @@@@@",
"& $$$$@",
"& $$$$@",
"& $$$$@",
"& $$$$@",
"& $$$$@",
"& $$$$@",
"& $$$$@",
"& $$$$@",
"& $$$$@",
"& %%%%#",
"&.$%%%#",
"&o+%%%#",
"&&XO$%#",
"&&&X.  ",
"&&&&&&&"
};
