/* XPM */
static char *spin_ltr_up_hover_png[] = {
/* columns rows colors chars-per-pixel */
"7 16 18 1 ",
"  c #9D9D99",
". c #9E9E9A",
"X c #A2A29E",
"o c #A3A39E",
"O c #A5A5A1",
"+ c #C5C5C2",
"@ c #C8C8C5",
"# c #D2D2D0",
"$ c #D2D2D1",
"% c #D3D3D1",
"& c #D7D7D6",
"* c #DFDFDE",
"= c #E0E0DF",
"- c #E7E7E7",
"; c gray94",
": c gray95",
"> c #F3F3F3",
", c None",
/* pixels */
",,,,,,,",
"   X,,,",
"@%#+o,,",
"&---$O,",
"*:::;.,",
"*:::: ,",
"*:::: ,",
"*:::: ,",
"=>>>> ,",
"=>>>> ,",
"=>>>> ,",
"=>>>> ,",
"=>>>> ,",
"=>>>> ,",
"=>>>> ,",
"=>>>> ,"
};
