/* XPM */
static char *spin_ltr_down_active_png[] = {
/* columns rows colors chars-per-pixel */
"7 16 12 1 ",
"  c #9D9D99",
". c #9E9E9A",
"X c #A5A5A1",
"o c #A6A6A2",
"O c #A7A7A3",
"+ c #D1D1D0",
"@ c #E0E0DF",
"# c #E1E1E0",
"$ c gray89",
"% c #E4E4E4",
"& c gray90",
"* c None",
/* pixels */
"@@@@@ *",
"@%%%% *",
"@%%%% *",
"@%%%% *",
"@%%%% *",
"@%%%% *",
"@%%%% *",
"@%%%% *",
"@%%%% *",
"@%%%% *",
"#&&&& *",
"#&&&$.*",
"#&&&+o*",
"#&%+X**",
"  .O***",
"*******"
};
