/* XPM */
static char *tab_down_active_png[] = {
/* columns rows colors chars-per-pixel */
"8 4 11 1 ",
"  c #9E9E9A",
". c #A3A3A0",
"X c #A4A4A0",
"o c #A4A4A1",
"O c #A5A5A1",
"+ c #E4E4E3",
"@ c #E5E5E4",
"# c gray99",
"$ c #FDFDFD",
"% c white",
"& c None",
/* pixels */
" $%%%%# ",
"X@%%%%+.",
"&O+$$+O&",
"&&.  o&&"
};
