/* XPM */
static char *tab_down_png[] = {
/* columns rows colors chars-per-pixel */
"8 4 10 1 ",
"  c #9E9E9A",
". c #A2A29F",
"X c #A3A3A0",
"o c #A4A4A0",
"O c #DADAD9",
"+ c #DBDBDA",
"@ c #EEEEEE",
"# c #EFEFEF",
"$ c #F1F1F1",
"% c None",
/* pixels */
" #$$$$@ ",
".+$$$$OX",
"%oO##Oo%",
"%%X  X%%"
};
