/* XPM */
static char *tab_right_png[] = {
/* columns rows colors chars-per-pixel */
"4 8 10 1 ",
"  c #9E9E9A",
". c #A2A29F",
"X c #A3A3A0",
"o c #A4A4A0",
"O c #DADAD9",
"+ c #DBDBDA",
"@ c #EEEEEE",
"# c #EFEFEF",
"$ c #F1F1F1",
"% c None",
/* pixels */
" .%%",
"#+o%",
"$$OX",
"$$# ",
"$$@ ",
"$$OX",
"#Oo%",
" X%%"
};
