/* XPM */
static char *tab_up_active_png[] = {
/* columns rows colors chars-per-pixel */
"8 4 11 1 ",
"  c #9E9E9A",
". c #A4A49F",
"X c #A3A3A0",
"o c #A4A4A0",
"O c #A5A5A1",
"+ c #A5A5A2",
"@ c #E4E4E3",
"# c #E5E5E4",
"$ c #FDFDFD",
"% c white",
"& c None",
/* pixels */
"&&o  o&&",
"&+#$$#O&",
".#%%%%@X",
" $%%%%$ "
};
