/* XPM */
static char *tab_up_png[] = {
/* columns rows colors chars-per-pixel */
"8 4 11 1 ",
"  c #9E9E9A",
". c #A3A39E",
"X c #A2A29F",
"o c #A3A3A0",
"O c #A4A4A0",
"+ c #A4A4A1",
"@ c #DADAD9",
"# c #DBDBDA",
"$ c #EFEFEF",
"% c #F1F1F1",
"& c None",
/* pixels */
"&&O  X&&",
"&+#$$#O&",
".#%%%%@o",
" $%%%%$ "
};
