/* XPM */
static char *treeview_pan_up_hover_png[] = {
/* columns rows colors chars-per-pixel */
"16 16 3 1 ",
"  c #636769",
". c #64686A",
"X c None",
/* pixels */
"XXXXXXXXXXXXXXXX",
"XXXXXXXXXXXXXXXX",
"XXXXXXXXXXXXXXXX",
"XXXXXXXXXXXXXXXX",
"XXXXXXXXXXXXXXXX",
"XXXXXXX. XXXXXXX",
"XXXXXX.   XXXXXX",
"XXXXX.     XXXXX",
"XXXX.       XXXX",
"XXX.         XXX",
"XXXXXXXXXXXXXXXX",
"XXXXXXXXXXXXXXXX",
"XXXXXXXXXXXXXXXX",
"XXXXXXXXXXXXXXXX",
"XXXXXXXXXXXXXXXX",
"XXXXXXXXXXXXXXXX"
};
